<svg xmlns="http://www.w3.org/2000/svg" width="70" height="70" viewBox="0 0 70 70"><g><g><g><g transform="rotate(70 37.5 29.5)"><path fill="#00334c" d="M42.836 32.52l13.136-15.887a1.224 1.224 0 0 0-.616-1.96l-20.773-5.77a1 1 0 0 0-1.245 1.17l.59 2.78c.064.304-.134.556-.406.705-6.695 3.66-9.83 9.963-10.675 12.814-4.378 14.776 1.167 24.444 3.825 28.462a3.206 3.206 0 0 0 2.872 1.43l.033-.002a2.403 2.403 0 0 0 2.062-1.452l.082-.19c.332-.774.41-1.638.21-2.457-3.532-14.472 3.3-22.566 6.081-25.16.18-.168.4-.245.618-.245.385 0 .76.243.884.66l1.395 4.709a1.11 1.11 0 0 0 1.073.798c.311 0 .626-.129.854-.405z"/></g><g transform="rotate(70 30.5 33.5)"><path fill="#f83e46" d="M35.836 36.52l13.136-15.887a1.224 1.224 0 0 0-.616-1.96l-20.773-5.77a1 1 0 0 0-1.245 1.17l.59 2.78c.064.304-.134.556-.406.705-6.695 3.66-9.83 9.963-10.675 12.814-4.378 14.776 1.167 24.444 3.825 28.462a3.206 3.206 0 0 0 2.872 1.43l.033-.002a2.403 2.403 0 0 0 2.062-1.452l.082-.19c.332-.774.41-1.638.21-2.457-3.532-14.472 3.3-22.566 6.081-25.16.18-.168.4-.245.618-.245.385 0 .76.243.884.66l1.395 4.709a1.11 1.11 0 0 0 1.073.798c.311 0 .626-.129.854-.405z"/></g></g><g/></g></g></svg>