<svg xmlns="http://www.w3.org/2000/svg" width="22" height="30" viewBox="0 0 22 30"><g><g><g><path fill="#00334c" d="M9.268 15.054H7.004v-1.962H9.26l.157-3.586a3.228 3.228 0 0 1 3.24-3.102h.044l2.137.029-.043 1.9h-1.686c-.92 0-1.67.75-1.67 1.671v3.088h3.33l-.15 1.962h-3.18v8.635h-2.17zm3.376 1.207h3.09l.336-4.375h-3.426v-1.882c0-.256.208-.464.464-.464h2.866l.097-4.297-3.354-.045h-.062a4.43 4.43 0 0 0-4.444 4.255l-.106 2.433H5.798v4.375H8.06v8.634h4.583z"/><path fill="none" stroke="#00334c" stroke-miterlimit="20" stroke-width=".5" d="M9.268 15.054H7.004v-1.962H9.26l.157-3.586a3.228 3.228 0 0 1 3.24-3.102h.044l2.137.029-.043 1.9h-1.686c-.92 0-1.67.75-1.67 1.671v3.088h3.33l-.15 1.962h-3.18v8.635h-2.17zm3.376 1.207h3.09l.336-4.375h-3.426v-1.882c0-.256.208-.464.464-.464h2.866l.097-4.297-3.354-.045h-.062a4.43 4.43 0 0 0-4.444 4.255l-.106 2.433H5.798v4.375H8.06v8.634h4.583z"/></g></g></g></svg>