<svg xmlns="http://www.w3.org/2000/svg" width="25" height="25" viewBox="0 0 25 25"><g><g><g/><g><g><g><path fill="#fff" d="M15.165 12.238a2.57 2.57 0 0 1-2.567 2.568 2.57 2.57 0 0 1-2.566-2.568 2.57 2.57 0 0 1 2.566-2.566 2.57 2.57 0 0 1 2.567 2.566zm.933 0c0-1.93-1.57-3.5-3.5-3.5s-3.5 1.57-3.5 3.5 1.57 3.5 3.5 3.5 3.5-1.57 3.5-3.5z"/></g></g><g><g><path fill="#fff" d="M17.33 6.198c.75 0 1.361.61 1.361 1.36v9.413c0 .75-.61 1.36-1.361 1.36H7.919c-.75 0-1.362-.61-1.362-1.36V7.559c0-.75.611-1.361 1.362-1.361zm2.295 10.773V7.559a2.298 2.298 0 0 0-2.295-2.295H7.919A2.297 2.297 0 0 0 5.624 7.56v9.412a2.297 2.297 0 0 0 2.295 2.294h9.411a2.298 2.298 0 0 0 2.295-2.294z"/></g></g><g><path fill="#fff" d="M15.554 8.401a.907.907 0 1 1 1.815 0 .907.907 0 0 1-1.815 0z"/></g></g></g></g></svg>