<svg xmlns="http://www.w3.org/2000/svg" width="30" height="30" viewBox="0 0 30 30"><g><g><g/><g><g><g><path fill="#f83e46" d="M18.479 14.965a3.518 3.518 0 1 1-7.037.001 3.518 3.518 0 0 1 7.037-.001zm1.279 0a4.798 4.798 0 1 0-9.596 0 4.798 4.798 0 0 0 9.596 0z"/></g></g><g><g><path fill="#f83e46" d="M21.447 6.682a1.87 1.87 0 0 1 1.866 1.866v12.904a1.87 1.87 0 0 1-1.866 1.866H8.545a1.87 1.87 0 0 1-1.866-1.866V8.55a1.869 1.869 0 0 1 1.866-1.866zM24.6 21.45V8.548a3.153 3.153 0 0 0-3.153-3.145H8.545A3.154 3.154 0 0 0 5.4 8.548v12.904a3.154 3.154 0 0 0 3.145 3.145h12.902A3.153 3.153 0 0 0 24.6 21.45z"/></g></g><g><path fill="#f83e46" d="M19.012 9.704a1.243 1.243 0 1 1 2.487 0 1.243 1.243 0 0 1-2.486 0z"/></g></g></g></g></svg>