<svg xmlns="http://www.w3.org/2000/svg" width="25" height="25" viewBox="0 0 25 25"><defs><linearGradient id="1rxha" x1="11.13" x2="-5.6" y1="2.2" y2="17.6" gradientUnits="userSpaceOnUse"><stop offset="0" stop-color="#ff3c45"/><stop offset="1" stop-color="#f96873"/></linearGradient></defs><g><g><g><path fill="url(#1rxha)" d="M7.97 8.72l4.842-5.857a.451.451 0 0 0-.227-.722L4.927.014a.369.369 0 0 0-.459.431l.217 1.025c.024.112-.049.205-.15.26C2.069 3.08.913 5.403.602 6.454c-1.614 5.446.43 9.01 1.41 10.491a1.182 1.182 0 0 0 1.059.528l.012-.001a.886.886 0 0 0 .76-.535l.03-.07c.122-.286.15-.604.077-.906-1.301-5.335 1.217-8.319 2.242-9.275a.339.339 0 0 1 .553.153l.515 1.736a.409.409 0 0 0 .71.145z"/></g><g><path fill="#00334c" d="M13.03 1.172c-.26 0-.52.01-.777.028l.325.09a1.294 1.294 0 0 1 .655 2.074l-.316.38.113-.002c5.11 0 9.278 4.083 9.386 9.143H19.97v.429h2.445c-.12 4.995-4.199 9.032-9.227 9.115v-2.382h-.43v2.379a9.4 9.4 0 0 1-8.245-5.422 1.715 1.715 0 0 1-1.405.888h-.012a2.02 2.02 0 0 1-1.127-.265c1.797 4.324 6.076 7.374 11.061 7.374 6.6 0 11.97-5.345 11.97-11.914 0-6.57-5.37-11.915-11.97-11.915z"/></g></g></g></svg>