<svg xmlns="http://www.w3.org/2000/svg" width="30" height="30" viewBox="0 0 30 30"><g><g><g><g><g><path fill="#f83e46" d="M5.856 9.996h2.592v13.911H5.856zm-.404-3.975c0-.923.778-1.672 1.671-1.672.922 0 1.67.749 1.67 1.672 0 .921-.748 1.641-1.67 1.641-.893 0-1.671-.72-1.671-1.641z"/></g><g><path fill="#f83e46" d="M21.955 15.007c0-2.304-1.181-3.053-2.967-3.053-1.612 0-3.082.979-3.83 2.017v9.936h-2.592V9.996h2.592v1.958c.922-1.123 2.765-2.304 4.925-2.304 2.939 0 4.465 1.555 4.465 4.493v9.764h-2.593z"/></g></g></g><g/></g></g></svg>