<svg xmlns="http://www.w3.org/2000/svg" width="25" height="25" viewBox="0 0 25 25"><g><g><g><g/><g><g><path fill="#fff" d="M7.978 5.29c.285 0 .553.111.755.313l1.725 1.727a1.067 1.067 0 0 1 0 1.511l-.88.882a1.392 1.392 0 0 0-.226 1.674c.68 1.184 2.207 3.384 4.789 4.815a1.41 1.41 0 0 0 1.676-.225l.866-.868a1.093 1.093 0 0 1 1.509 0l1.731 1.735a1.071 1.071 0 0 1 0 1.511l-.489.49c-.903.904-2.24 1.232-3.408.83-6.273-2.148-9.029-7.159-10.113-9.954a3.36 3.36 0 0 1 .768-3.584l.543-.544c.202-.202.47-.313.754-.313zm9.066 15.636c1.151 0 2.297-.46 3.147-1.312l.49-.49c.403-.405.625-.942.625-1.514 0-.572-.222-1.11-.626-1.514L18.95 14.36a2.138 2.138 0 0 0-3.023 0l-.866.868a.335.335 0 0 1-.401.044c-2.443-1.352-3.876-3.535-4.38-4.411a.318.318 0 0 1 .056-.38l.88-.882c.403-.404.626-.942.626-1.514 0-.572-.223-1.11-.627-1.513L9.49 4.844c-.807-.807-2.215-.809-3.022 0l-.543.544a4.434 4.434 0 0 0-1.01 4.731C6.067 13.088 8.996 18.411 15.68 20.7c.443.152.904.226 1.364.226z"/></g></g></g></g></g></svg>