<?xml version="1.0" encoding="utf-8"?>
<!-- Generator: Adobe Illustrator 24.1.2, SVG Export Plug-In . SVG Version: 6.00 Build 0)  -->
<svg version="1.1" id="Layer_1" xmlns="http://www.w3.org/2000/svg" xmlns:xlink="http://www.w3.org/1999/xlink" x="0px" y="0px"
	 viewBox="0 0 14.6 20.8" style="enable-background:new 0 0 14.6 20.8;" xml:space="preserve">
<style type="text/css">
	.st0{fill:#F83E46;}
</style>
<g>
	<g>
		<g>
			<g>
				<g>
					<path class="st0" d="M12.6,10.4L7.4,19l-5.3-8.5c-0.6-1-0.9-2.1-0.9-3.2C1.2,4,4,1.2,7.3,1.2c3.4,0,6.1,2.7,6.1,6.1
						C13.4,8.4,13.1,9.5,12.6,10.4z M7.3,0C3.3,0,0,3.3,0,7.3c0,1.4,0.4,2.7,1.1,3.8l5.8,9.4c0.1,0.2,0.3,0.3,0.5,0.3h0
						c0.2,0,0.4-0.1,0.5-0.3l5.7-9.4c0.7-1.1,1-2.4,1-3.7C14.6,3.3,11.3,0,7.3,0z"/>
				</g>
			</g>
		</g>
		<g>
			<g>
				<g>
					<path class="st0" d="M7.3,8.9c-1.2,0-2.2-1-2.2-2.2c0-1.2,1-2.2,2.2-2.2c1.2,0,2.2,1,2.2,2.2C9.5,7.9,8.5,8.9,7.3,8.9z
						 M7.3,3.5c-1.8,0-3.3,1.5-3.3,3.3c0,1.8,1.5,3.3,3.2,3.3c0,0,0,0,0,0c1.8,0,3.3-1.4,3.3-3.2c0,0,0,0,0,0
						C10.6,4.9,9.1,3.5,7.3,3.5z"/>
				</g>
			</g>
		</g>
	</g>
</g>
</svg>
