<svg xmlns="http://www.w3.org/2000/svg" width="28" height="32" viewBox="0 0 28 32"><g><g><path fill="#f83e46" d="M25.201 12.65L7.23 1.574a4.105 4.105 0 0 0-4.205-.09A4.105 4.105 0 0 0 .895 5.111v22.055c0 2.31 1.86 4.197 4.147 4.21h.019c.714 0 1.459-.224 2.154-.648a1.186 1.186 0 1 0-1.236-2.026c-.325.198-.643.3-.924.3-.863-.004-1.787-.743-1.787-1.835V5.11c0-.655.342-1.236.914-1.556a1.76 1.76 0 0 1 1.803.038l17.971 11.078c.54.333.85.887.848 1.522a1.749 1.749 0 0 1-.855 1.519l-12.994 7.955a1.186 1.186 0 1 0 1.239 2.024l12.992-7.955a4.127 4.127 0 0 0 1.991-3.539 4.127 4.127 0 0 0-1.976-3.546z"/></g></g></svg>