<svg xmlns="http://www.w3.org/2000/svg" width="60" height="60" viewBox="0 0 60 60"><g><g><g/><g><g><g><g><g><path fill="#f83e46" d="M43.042 19.967a1.055 1.055 0 0 1-1.055-1.055V11.7a1.056 1.056 0 0 1 2.11 0v7.212c0 .582-.472 1.055-1.055 1.055z"/></g></g></g><g><g><g><path fill="#f83e46" d="M41.982 8.307a1.055 1.055 0 1 1 2.11 0 1.055 1.055 0 0 1-2.11 0z"/></g></g></g><g><g><path fill="#f83e46" d="M43.036 22.047a8.971 8.971 0 1 1 8.969-8.973v.002a8.98 8.98 0 0 1-8.968 8.977zM31.958 14.72v2.341H15.061V14.72zm7.07 31.772a1.73 1.73 0 0 1-1.73 1.729H9.722a1.73 1.73 0 0 1-1.73-1.729V8.122a1.73 1.73 0 0 1 1.73-1.729H34.21a11.019 11.019 0 0 0-2.239 6.22H14.007a1.056 1.056 0 0 0-1.055 1.055v4.455c0 .583.473 1.056 1.056 1.056h19.005c.231 0 .455-.076.638-.215a11.15 11.15 0 0 0 5.377 4.449zm15.088-33.411C54.12 6.965 49.166 2.004 43.05 2a11.074 11.074 0 0 0-6.742 2.283H9.721a3.842 3.842 0 0 0-3.839 3.838v38.371a3.844 3.844 0 0 0 3.839 3.838h3.346v1.832A3.844 3.844 0 0 0 16.906 56h27.576a3.844 3.844 0 0 0 3.841-3.832V37.536a1.056 1.056 0 0 0-2.11-.066v14.698a1.73 1.73 0 0 1-1.73 1.73H16.907a1.73 1.73 0 0 1-1.73-1.73v-1.832h22.122a3.845 3.845 0 0 0 3.841-3.844V24.003c1.692.292 3.43.187 5.075-.305V28a1.055 1.055 0 0 0 2.11.066v-5.248a11.091 11.091 0 0 0 5.793-9.736z"/></g><g><g><g><path fill="#f83e46" d="M47.267 33.804a1.054 1.054 0 1 1 1.028-.814 1.065 1.065 0 0 1-1.028.814z"/></g></g></g></g><g><g><g><g><g><path fill="#f83e46" d="M33.013 24.955H14.007a1.055 1.055 0 1 1 0-2.109h19.006a1.056 1.056 0 1 1 0 2.109z"/></g></g></g><g><g><g><path fill="#f83e46" d="M33.013 29.958H14.007a1.056 1.056 0 0 1-.066-2.11h19.072a1.056 1.056 0 0 1 .066 2.11h-.066z"/></g></g></g><g><g><g><path fill="#f83e46" d="M33.013 34.961H14.007a1.055 1.055 0 0 1 0-2.109h19.006a1.056 1.056 0 1 1 0 2.109z"/></g></g></g><g><g><g><path fill="#f83e46" d="M33.013 39.968H14.007a1.055 1.055 0 0 1 0-2.11h19.006a1.056 1.056 0 0 1 .066 2.11h-.066z"/></g></g></g></g></g></g></g></g></g></svg>