<svg xmlns="http://www.w3.org/2000/svg" width="60" height="60" viewBox="0 0 60 60"><defs><clipPath id="mk52a"><path d="M3 57V3h54v54z"/></clipPath></defs><g><g><g><g><g><g/><g clip-path="url(#mk52a)"><g><g><path fill="#f83e46" d="M50.76 29.677l-8.386-10.669 4.276-2.722 7.836 10.179zm-4.271 7.701L34.675 25.565a1.062 1.062 0 0 0-.675-.307l-5.79-.41a1.077 1.077 0 0 0-.996.534l-2.974 5.254a1.623 1.623 0 1 1-2.826-1.602l3.975-7.02L27 21.551l.032-.011 6.012-1.736h7.261l9.068 11.533zm-2.736 4.854a1.11 1.11 0 0 0-.072-.065l-6.809-6.88a1.059 1.059 0 0 0-1.505 1.489l6.882 6.954a1.625 1.625 0 0 1-2.297 2.297l-4.602-4.65a1.058 1.058 0 1 0-1.504 1.489l4.533 4.581c.023.028.048.056.074.082a1.625 1.625 0 0 1-2.298 2.297l-2.513-2.539a1.058 1.058 0 1 0-1.505 1.49l2.442 2.468a.828.828 0 0 0 .075.082 1.625 1.625 0 0 1-2.297 2.297 2.461 2.461 0 0 0-.24-.192c-.07-.053-.09-.09-.053-.173.037-.084.09-.162.122-.249a3.823 3.823 0 0 0 .238-1.921 3.703 3.703 0 0 0-3.157-3.188 3.777 3.777 0 0 0-.907-3.407 3.712 3.712 0 0 0-2.667-1.17h-.112a3.705 3.705 0 0 0-3.592-3.816l-.076-.001a3.783 3.783 0 0 0-.9.096 3.73 3.73 0 0 0-6.188-2.216l-4.095-5.512 9.793-11.93 3.121.853-4.076 7.192a3.744 3.744 0 0 0 1.576 5.191l.013.006a3.743 3.743 0 0 0 4.924-1.505l2.648-4.674 4.73.336 12.592 12.593c.631.635.63 1.66-.001 2.295a1.627 1.627 0 0 1-2.297 0zM26.296 54.05a1.627 1.627 0 0 1 0-2.297l1.292-1.291a1.617 1.617 0 0 1 .841-.446h.019c.045-.008.09-.014.138-.019h.056c.038 0 .075-.004.113 0a1.616 1.616 0 0 1 1.263.632 1.676 1.676 0 0 1-.18 2.187l-1.244 1.233a1.627 1.627 0 0 1-2.297 0zm-4.306-3.33a1.62 1.62 0 0 1-.006-2.291l.006-.006 2.503-2.504a1.643 1.643 0 0 1 1.964-.257c.569.337.877.987.775 1.641a1.717 1.717 0 0 1-.481.954l-2.463 2.463a1.62 1.62 0 0 1-2.291.006l-.006-.006zm-3.78-3.817a1.62 1.62 0 0 1-.006-2.291l2.51-2.51a1.643 1.643 0 0 1 1.847-.318c.629.307.99.984.894 1.677-.05.37-.219.714-.483.979l-2.464 2.463a1.62 1.62 0 0 1-2.291.006l-.006-.006zm-3.321-6.59l1.291-1.291a1.616 1.616 0 0 1 1.005-.471h.028c.046 0 .09-.006.138-.005.44.004.858.188 1.159.508a1.665 1.665 0 0 1-.072 2.303l-1.252 1.253a1.625 1.625 0 0 1-2.297-2.297zm-.604-24.039l4.278 2.721-9.306 11.34-3.73-3.212zm42.495 9.694l-9.038-11.741a1.06 1.06 0 0 0-1.408-.248l-5.835 3.712h-7.611a1.038 1.038 0 0 0-.292.048l-5.901 1.699-6.12-1.675-5.95-3.78a1.058 1.058 0 0 0-1.392.228l-9.998 12.38c-.358.444-.3 1.093.133 1.466l5.24 4.509 4.701 6.335a3.739 3.739 0 0 0 2.351 6.28 3.743 3.743 0 0 0 3.698 4.315h.04v.076a3.742 3.742 0 0 0 3.74 3.743h.002a3.93 3.93 0 0 0 .584-.046 3.743 3.743 0 0 0 6.366 2.278l.572-.573.241.194a3.741 3.741 0 0 0 6.341-2.748 3.736 3.736 0 0 0 3.799-3.796 3.738 3.738 0 0 0 3.798-3.8 3.74 3.74 0 0 0 3.197-5.778l3.432-7.188 5.16-4.441a1.058 1.058 0 0 0 .15-1.449z"/></g><g><path fill="#f83e46" d="M35.715 15.703c.281 0 .55-.112.749-.311l7.232-7.232a1.06 1.06 0 0 0-1.497-1.498l-7.233 7.233a1.06 1.06 0 0 0 .749 1.808z"/></g><g><path fill="#f83e46" d="M23.536 15.392a1.06 1.06 0 0 0 1.498-1.497l-7.233-7.233a1.059 1.059 0 0 0-1.497 1.498z"/></g><g><path fill="#f83e46" d="M30 15.703a1.06 1.06 0 0 0 1.058-1.056V8.658a1.058 1.058 0 0 0-2.117 0v5.989A1.059 1.059 0 0 0 30 15.703z"/></g><g><path fill="#f83e46" d="M29.023 4.821a1.057 1.057 0 1 0 1.621-1.244 1.07 1.07 0 0 0-1.232-.041 1.066 1.066 0 0 0-.389 1.285z"/></g></g></g></g></g></g><g/></g></g></svg>