<svg xmlns="http://www.w3.org/2000/svg" width="60" height="60" viewBox="0 0 60 60"><g><g><g/><g><g><path fill="#f83e46" d="M51.908 50.818l1.76 3.518h-6.723a.62.62 0 0 1-.612-.612v-7.391h7.335l-1.76 3.518a1.089 1.089 0 0 0 0 .967zm-7.739-2.178a.62.62 0 0 1-.612.612H16.443a.62.62 0 0 1-.612-.612v-6.779a.62.62 0 0 1 .612-.612h27.114a.62.62 0 0 1 .612.612zM13.118 12.652a2.289 2.289 0 0 1-.676-1.631c0-.617.241-1.196.676-1.631.869-.871 2.39-.872 3.263.001l9.078 9.078c.205.205.477.317.766.317h7.55c.289 0 .561-.112.766-.317l9.078-9.078c.873-.872 2.39-.873 3.263 0 .435.435.676 1.014.676 1.63 0 .618-.241 1.197-.676 1.632L36.013 23.522a1.076 1.076 0 0 0-.317.765v14.798H24.304V24.287c0-.285-.116-.563-.317-.765zM30 5.664a5.485 5.485 0 0 1 5.479 5.479A5.485 5.485 0 0 1 30 16.622a5.485 5.485 0 0 1-5.479-5.479A5.485 5.485 0 0 1 30 5.664zm-16.333 48.06a.62.62 0 0 1-.612.612H6.332l1.76-3.518a1.089 1.089 0 0 0 0-.967l-1.76-3.518h7.335zm40.419-3.39l2.3-4.6a1.073 1.073 0 0 0-.048-1.052 1.087 1.087 0 0 0-.92-.513h-9.085v-2.308a2.779 2.779 0 0 0-2.776-2.776H37.86v-14.35l10.552-10.552a4.437 4.437 0 0 0 1.31-3.162 4.437 4.437 0 0 0-1.31-3.161 4.444 4.444 0 0 0-3.161-1.31 4.447 4.447 0 0 0-3.162 1.31l-4.442 4.442-.005-1.198C37.62 6.911 34.192 3.5 30 3.5s-7.62 3.411-7.642 7.604l-.005 1.198-4.442-4.442a4.447 4.447 0 0 0-3.162-1.31 4.444 4.444 0 0 0-3.161 1.31 4.437 4.437 0 0 0-1.31 3.161c0 1.196.465 2.318 1.31 3.162L22.14 24.735v14.35h-5.697a2.779 2.779 0 0 0-2.776 2.776v2.308H4.582a1.09 1.09 0 0 0-.921.513 1.075 1.075 0 0 0-.047 1.052l2.3 4.6-2.3 4.601c-.169.337-.151.731.048 1.052.195.317.548.513.92.513h8.473a2.779 2.779 0 0 0 2.776-2.776v-2.338l.526.028 27.199.002.525-.027.088.524v1.811a2.779 2.779 0 0 0 2.776 2.776h8.473c.372 0 .725-.196.921-.513.198-.321.216-.715.047-1.052z"/></g></g></g></g></svg>