<svg xmlns="http://www.w3.org/2000/svg" width="70" height="70" viewBox="0 0 70 70"><g><g><g><g transform="rotate(110 32.5 29.5)"><path fill="#00334c" d="M35.364 32.614L48.5 48.502a1.224 1.224 0 0 1-.616 1.96l-20.773 5.77a1 1 0 0 1-1.245-1.17l.59-2.78c.064-.304-.133-.556-.406-.705-6.695-3.66-9.83-9.963-10.675-12.814C10.997 23.987 16.543 14.319 19.2 10.3a3.206 3.206 0 0 1 2.872-1.43l.033.002a2.403 2.403 0 0 1 2.063 1.451l.08.19c.333.775.41 1.639.21 2.458-3.53 14.472 3.301 22.566 6.082 25.16.18.168.4.245.618.245.385 0 .76-.243.884-.66l1.395-4.709a1.11 1.11 0 0 1 1.073-.799c.312 0 .626.13.854.405z"/></g><g transform="rotate(110 39.5 33.5)"><path fill="#fff" d="M42.364 36.614L55.5 52.502a1.224 1.224 0 0 1-.616 1.96l-20.773 5.77a1 1 0 0 1-1.245-1.17l.59-2.78c.064-.304-.133-.556-.406-.705-6.695-3.66-9.83-9.963-10.675-12.814C17.997 27.987 23.543 18.319 26.2 14.3a3.206 3.206 0 0 1 2.872-1.43l.033.002a2.403 2.403 0 0 1 2.063 1.451l.08.19c.333.775.41 1.639.21 2.458-3.53 14.472 3.301 22.566 6.082 25.16.18.168.4.245.618.245.385 0 .76-.243.884-.66l1.395-4.709a1.11 1.11 0 0 1 1.073-.799c.312 0 .626.13.854.405z"/></g></g><g/></g></g></svg>