<svg xmlns="http://www.w3.org/2000/svg" width="60" height="60" viewBox="0 0 60 60"><g><g><g><g/></g><g><g><g><path fill="#f83e46" d="M41.654 30.444v-7.772h5.693l7.761 7.76zm4.331 15.096a4.335 4.335 0 0 1-4.33-4.33 4.335 4.335 0 0 1 4.33-4.33 4.334 4.334 0 0 1 4.33 4.33 4.334 4.334 0 0 1-4.33 4.33zm-20.232 0l.32-.405a6.354 6.354 0 0 0 1.251-2.724l.04-.202h12.374l.04.202a6.36 6.36 0 0 0 1.251 2.724l.32.405zm-4.633 0a4.334 4.334 0 0 1-4.33-4.33 4.334 4.334 0 0 1 4.33-4.33 4.334 4.334 0 0 1 4.33 4.33 4.334 4.334 0 0 1-4.33 4.33zm24.315-27.603a2.767 2.767 0 0 0-1.952-.814H28.114v1.996h4.44v13.319h1.995V19.119h8.92c.204 0 .405.083.55.227l1.33 1.33h-3.805c-1.04 0-1.886.845-1.886 1.886v7.992c0 1.04.846 1.885 1.886 1.885h13.21v6.992a.778.778 0 0 1-.777.777h-1.75l-.039-.203a6.293 6.293 0 0 0-2.418-3.86 6.282 6.282 0 0 0-4.686-1.197 6.33 6.33 0 0 0-5.304 5.058l-.039.202H27.367l-.039-.203c-.638-3.314-3.755-5.527-7.105-5.057a6.33 6.33 0 0 0-5.303 5.058l-.039.202h-1.753a.779.779 0 0 1-.778-.777v-8.099h-1.999v8.102a2.776 2.776 0 0 0 2.773 2.773h1.748l.04.202c.192.99.624 1.932 1.251 2.724l.321.405H3.25v1.995h42.735a6.347 6.347 0 0 0 6.199-5.126l.039-.202h1.754a2.776 2.776 0 0 0 2.773-2.773v-9.767c0-.214-.071-.425-.199-.597z"/></g><g><path fill="#f83e46" d="M14.904 8.463c5.326 0 9.658 4.333 9.658 9.659 0 5.325-4.332 9.658-9.658 9.658-5.325 0-9.658-4.333-9.658-9.658 0-5.326 4.333-9.659 9.658-9.659zm0 21.312c6.427 0 11.655-5.228 11.655-11.654S21.331 6.467 14.904 6.467c-6.426 0-11.654 5.228-11.654 11.655 0 6.426 5.229 11.653 11.654 11.653z"/></g><g><path fill="#f83e46" d="M12.89 15.019a2.828 2.828 0 0 1 2.013-.834c.761 0 1.477.296 2.014.835.538.537.833 1.251.833 2.013s-.296 1.477-.833 2.014l-2.013 2.014-1.838-1.837-.078.078-.353-.355v-.001l.085-.084a2.83 2.83 0 0 1-.664-1.83c0-.76.296-1.474.834-2.013zm2.014 8.861l3.424-3.423a4.809 4.809 0 0 0 1.415-3.423 4.83 4.83 0 0 0-4.838-4.839c-1.24 0-2.48.472-3.424 1.416a4.848 4.848 0 0 0-.001 6.846z"/></g></g></g></g></g></svg>