<svg xmlns="http://www.w3.org/2000/svg" width="60" height="60" viewBox="0 0 60 60"><g><g><g><g><path fill="#f83e46" d="M41.596 12.648h4.153a1.061 1.061 0 0 0 0-2.12h-4.153a1.061 1.061 0 0 0 0 2.12z"/></g><g><path fill="#f83e46" d="M39.452 55.373H19.781l1.179-1.581c.138-.186.211-.404.211-.634v-3.181h16.89v3.182c.001.232.074.45.211.634zm13.787-44.844h-4.037a1.061 1.061 0 0 0 0 2.12h4.036a2.038 2.038 0 0 1 2.032 2.03V43.08H11.951a1.061 1.061 0 0 0 0 2.12H55.27v.623a2.037 2.037 0 0 1-2.031 2.031H5.886a2.037 2.037 0 0 1-2.031-2.031V45.2h4.643a1.061 1.061 0 0 0 0-2.12H3.855V14.679a2.037 2.037 0 0 1 2.031-2.031h11.643a1.061 1.061 0 0 0 0-2.12H5.886a4.163 4.163 0 0 0-4.15 4.15v31.144a4.163 4.163 0 0 0 4.15 4.15H19.05v2.83l-1.914 2.567h-.853a1.061 1.061 0 0 0 0 2.12h26.785a1.061 1.061 0 0 0 0-2.12h-.975l-1.914-2.567v-2.83h13.06a4.163 4.163 0 0 0 4.15-4.15V14.679a4.163 4.163 0 0 0-4.15-4.15z"/></g><g><path fill="#f83e46" d="M21.83 11.585c.005-4.189 3.362-7.615 7.527-7.73h.205c4.265 0 7.734 3.469 7.734 7.733 0 4.265-3.469 7.733-7.734 7.733-4.263 0-7.732-3.468-7.732-7.736zm7.732 9.856c5.432 0 9.851-4.419 9.851-9.85s-4.419-9.85-9.851-9.85c-5.43 0-9.849 4.419-9.849 9.85.008 5.424 4.427 9.843 9.849 9.85z"/></g><g><path fill="#f83e46" d="M27.776 15.791a1.058 1.058 0 0 0 1.45-.022l5.76-5.563a1.058 1.058 0 0 0 .027-1.499 1.062 1.062 0 0 0-1.499-.026l-5.046 4.872-1.451-1.319a1.062 1.062 0 0 0-1.426 1.57z"/></g><g><path fill="#f83e46" d="M14.609 26.444h22.794a1.061 1.061 0 0 0-.001-2.12H14.609a2.366 2.366 0 0 0-2.36 2.361v4.786a2.366 2.366 0 0 0 2.36 2.36h13.313a1.063 1.063 0 0 0 .752-1.808 1.059 1.059 0 0 0-.754-.312H14.609a.24.24 0 0 1-.24-.24v-4.786a.24.24 0 0 1 .24-.241z"/></g><g><path fill="#f83e46" d="M40.853 26.444h3.663a.24.24 0 0 1 .24.241v4.786a.24.24 0 0 1-.24.24H41.414c-.582 0-1.058.474-1.06 1.058a1.061 1.061 0 0 0 1.062 1.062h3.1a2.366 2.366 0 0 0 2.36-2.36v-4.786a2.366 2.366 0 0 0-2.36-2.361h-3.663a1.061 1.061 0 0 0 0 2.12z"/></g><g><path fill="#f83e46" d="M35.353 36.094l1.61 2.343-.979.675-1.61-2.342a1.05 1.05 0 0 0-.874-.461c-.216 0-.424.064-.601.186l-.93.639.264-4.53 4.324 1.377-.931.639c-.481.33-.604.991-.273 1.474zm4.014-2.526a1.557 1.557 0 0 0-1.071-1.257l-6.108-1.945a1.561 1.561 0 0 0-2.025 1.394l-.374 6.399a1.55 1.55 0 0 0 .391 1.127 1.55 1.55 0 0 0 1.073.522c.342.008.69-.078.975-.273l1.002-.689 1.344 1.954a1.531 1.531 0 0 0 2.128.395l1.951-1.341a1.534 1.534 0 0 0 .395-2.128l-1.343-1.955 1.002-.689c.49-.333.749-.927.66-1.514z"/></g></g><g/></g></g></svg>