<svg xmlns="http://www.w3.org/2000/svg" width="60" height="60" viewBox="0 0 60 60"><defs><clipPath id="m78ua"><path d="M3 57V3h54v54z"/></clipPath></defs><g><g><g><g><g><g/><g clip-path="url(#m78ua)"><g><g><g><g><path fill="#f83e46" d="M21.199 44.333a1.157 1.157 0 0 0-.06-.198 1.12 1.12 0 0 0-.098-.18 1.027 1.027 0 0 0-.29-.29 1.047 1.047 0 0 0-.377-.158 1.058 1.058 0 0 0-.79.158 1.053 1.053 0 0 0-.29 1.459c.076.115.175.214.29.29.057.038.117.071.18.098a1.02 1.02 0 0 0 .807 0c.063-.027.123-.059.18-.098.115-.076.214-.175.29-.29a1.047 1.047 0 0 0 .158-.378 1.016 1.016 0 0 0 0-.411z"/></g></g></g><g><g><g><path fill="#f83e46" d="M47.982 48.464l-16.234 5.813-.048.018-.042.018a6.838 6.838 0 0 1-5.253.09 60.851 60.851 0 0 1-6.12-3.127 9.498 9.498 0 0 0-4.906-1.669v-8.495c1-1.639 2.939-3.315 5.029-3.315a6.085 6.085 0 0 1 5.163 2.425c.128.211.326.37.56.45l8.382 2.845a2.366 2.366 0 0 1 1.72 2.79 2.053 2.053 0 0 1-2.524 1.418l-9.45-2.994a1.056 1.056 0 0 0-.712 1.986c.024.009.048.016.072.023l9.465 3 .031.009a4.145 4.145 0 0 0 3.166-.368 4.143 4.143 0 0 0 2.045-2.755l7.92-2.194c1.144-.39 2.645-.532 3.314 1.008.69 1.808-1.11 2.802-1.578 3.024zM13.266 50.97h-1.89v-9.223h1.89zM9.27 52.938H5.11V41.747h4.161zm42.244-8.28l-.012-.031c-.971-2.272-3.247-3.112-5.94-2.191l-7.348 2.032a4.814 4.814 0 0 0-2.982-2.937l-.03-.011-8.077-2.741a8.329 8.329 0 0 0-6.721-3.093c-2.756 0-5.193 1.89-6.587 3.95H4.055c-.583 0-1.055.473-1.055 1.055v13.298c0 .583.472 1.055 1.055 1.055h6.27c.583 0 1.055-.472 1.055-1.055v-.91h2.941c.583 0 1.055-.473 1.055-1.055v-.303a7.476 7.476 0 0 1 3.853 1.382 63.66 63.66 0 0 0 6.336 3.235l.046.02a9.443 9.443 0 0 0 3.393.64 8.4 8.4 0 0 0 3.494-.748l16.242-5.82a.893.893 0 0 0 .085-.035c1.552-.709 3.865-2.723 2.689-5.737z"/></g></g></g><g><g><g><path fill="#f83e46" d="M40.869 16.873a1.04 1.04 0 0 0-.629-.767 1.052 1.052 0 0 0-.987.102 1.018 1.018 0 0 0-.388.47 1.02 1.02 0 0 0 0 .807 1.042 1.042 0 0 0 .388.47 1.047 1.047 0 0 0 .583.179 1.095 1.095 0 0 0 .404-.081 1.12 1.12 0 0 0 .18-.098 1.018 1.018 0 0 0 .388-.47 1.058 1.058 0 0 0 .061-.609z"/></g></g></g><g><g><g><path fill="#f83e46" d="M54.892 19.875h-4.163V8.684h4.161zm-6.271 0h-1.89V10.65h1.89zm-3.996.63c-1 1.639-2.938 3.316-5.028 3.316-.368 0-.736-.026-1.1-.078a6.04 6.04 0 0 1-3.907-2.138c-.022-.032-.113-.151-.127-.172a1.046 1.046 0 0 0-.581-.483l-8.391-2.845a2.368 2.368 0 0 1-1.722-2.79v-.005a2.056 2.056 0 0 1 2.52-1.415l9.45 2.995a1.055 1.055 0 0 0 .642-2.01l-7.515-2.381-.066-.066-3.892-3.894 3.344-1.198.036-.014h.011l.042-.018a6.843 6.843 0 0 1 5.253-.09 61.07 61.07 0 0 1 6.12 3.128 9.49 9.49 0 0 0 4.906 1.668zm-9.514 6.023a4.608 4.608 0 0 1-.674-2.194 8.21 8.21 0 0 0 1.863 1.009zM24.77 20.087l.028.013 2.109.72a3.903 3.903 0 1 1-5.298-4.458 4.668 4.668 0 0 0 3.161 3.725zm6.413 10.369a6.703 6.703 0 0 0-7.847 0L12.605 19.725a6.703 6.703 0 0 0 0-7.847l2.406-2.407a6.703 6.703 0 0 0 7.847 0l2.282 2.282a4.182 4.182 0 0 0-3.138 2.3 6.011 6.011 0 1 0 6.912 7.441l3.561 1.209a6.733 6.733 0 0 0 1.117 5.345zm-3.924 3.923l-2.403-2.403a4.59 4.59 0 0 1 4.807 0zM11.086 18.21l-2.404-2.408 2.404-2.404a4.601 4.601 0 0 1 0 4.808zm7.848-12.661l2.404 2.401a4.595 4.595 0 0 1-4.807 0zm37.011 1.026h-6.27c-.583 0-1.055.472-1.055 1.055v.91h-2.941a1.054 1.054 0 0 0-1.055 1.054v.304a7.486 7.486 0 0 1-3.853-1.383 63.874 63.874 0 0 0-6.336-3.235l-.047-.02a8.968 8.968 0 0 0-6.886.108l-4.244 1.521-3.577-3.578a1.057 1.057 0 0 0-1.492 0L6.444 15.06a1.046 1.046 0 0 0-.012 1.479l20.082 20.082a1.14 1.14 0 0 0 1.492 0L38.73 25.894c.279.025.568.037.868.037 2.755 0 5.193-1.89 6.587-3.95h9.76c.583 0 1.055-.472 1.055-1.055V7.629c0-.582-.473-1.054-1.055-1.054z"/></g></g></g></g></g></g></g></g><g/></g></g></svg>