<svg xmlns="http://www.w3.org/2000/svg" width="40" height="40" viewBox="0 0 40 40"><g><g><g opacity=".05"><path fill="#00334c" d="M0 20C0 8.954 8.954 0 20 0s20 8.954 20 20-8.954 20-20 20S0 31.046 0 20z"/></g><g><g><g><g><path d="M25.25 19.386l-4.043-4.043a.608.608 0 0 0-.433-.179.608.608 0 0 0-.434.179l-.367.367a.62.62 0 0 0 0 .872l2.359 2.363h-7.494a.598.598 0 0 0-.605.603v.519c0 .338.267.63.605.63h7.52l-2.385 2.376a.604.604 0 0 0 0 .86l.367.367c.116.115.27.178.434.178a.608.608 0 0 0 .433-.18l4.043-4.042a.609.609 0 0 0 .179-.435.609.609 0 0 0-.18-.435z"/></g></g></g><g/></g></g></g></svg>