<svg xmlns="http://www.w3.org/2000/svg" width="34" height="27" viewBox="0 0 34 27"><g><g clip-path="url(#clip-ab8dcb0d-76cd-4a95-b412-73c0aee7d2b7)"><path fill="#00334c" d="M24.891 9.465a2.665 2.665 0 0 0-.656 1.92c.174 2.923-.752 5.19-2.752 6.739-2.337 1.808-6.106 2.518-10.34 1.947-.767-.103-1.56-.335-2.215-.566 1.329-.393 2.355-.743 4.012-1.417l2.314-.94-2.555-.141c-1.223-.068-2.242-.577-2.868-1.404.332-.017.653-.063.972-.14l2.436-.583-2.456-.517c-1.194-.251-1.874-.865-2.235-1.335a3.022 3.022 0 0 1-.484-.919c.246.057.533.098.996.137l2.274.193-1.801-1.207c-1.299-.87-1.819-2.177-1.437-3.434 4.05 3.61 8.807 3.34 9.286 3.435-.105-.88-.108-.882-.136-.966-.613-1.862.731-2.808 1.337-3.128 1.266-.668 3.276-.77 4.668.332.3.238.707.332 1.087.25a10.3 10.3 0 0 0 .896-.234l-.57 1.402h.728l-.5.576zm3.216-1.842c-1.422.057-1.391.052-1.552.064l.842-2.067s-2.628.83-3.295.98c-1.75-1.352-4.352-1.412-6.212-.43-1.523.805-2.34 2.187-2.068 3.802-2.964-.354-5.462-1.561-7.434-3.597l-.624-.643-.466.735c-.589.93-.784 1.992-.55 2.992.095.41.258.801.484 1.168l-.535-.179-.063.769c-.065.78.238 1.69.809 2.436.16.21.367.44.63.668l-.277-.037.338.88c.443 1.157 1.364 2.051 2.56 2.549-1.194.435-2.159.713-3.744 1.16l-1.45.41 1.34.63c.51.24 2.315 1.041 4.098 1.281 3.963.535 8.426.1 11.43-2.225 2.53-1.959 3.36-4.744 3.188-7.643a1.634 1.634 0 0 1 .394-1.179c.561-.644 2.154-2.52 2.157-2.524z"/><path fill="none" stroke="#00334c" stroke-miterlimit="20" stroke-width=".5" d="M24.891 9.465a2.665 2.665 0 0 0-.656 1.92c.174 2.923-.752 5.19-2.752 6.739-2.337 1.808-6.106 2.518-10.34 1.947-.767-.103-1.56-.335-2.215-.566 1.329-.393 2.355-.743 4.012-1.417l2.314-.94-2.555-.141c-1.223-.068-2.242-.577-2.868-1.404.332-.017.653-.063.972-.14l2.436-.583-2.456-.517c-1.194-.251-1.874-.865-2.235-1.335a3.022 3.022 0 0 1-.484-.919c.246.057.533.098.996.137l2.274.193-1.801-1.207c-1.299-.87-1.819-2.177-1.437-3.434 4.05 3.61 8.807 3.34 9.286 3.435-.105-.88-.108-.882-.136-.966-.613-1.862.731-2.808 1.337-3.128 1.266-.668 3.276-.77 4.668.332.3.238.707.332 1.087.25a10.3 10.3 0 0 0 .896-.234l-.57 1.402h.728l-.5.576zm3.216-1.842c-1.422.057-1.391.052-1.552.064l.842-2.067s-2.628.83-3.295.98c-1.75-1.352-4.352-1.412-6.212-.43-1.523.805-2.34 2.187-2.068 3.802-2.964-.354-5.462-1.561-7.434-3.597l-.624-.643-.466.735c-.589.93-.784 1.992-.55 2.992.095.41.258.801.484 1.168l-.535-.179-.063.769c-.065.78.238 1.69.809 2.436.16.21.367.44.63.668l-.277-.037.338.88c.443 1.157 1.364 2.051 2.56 2.549-1.194.435-2.159.713-3.744 1.16l-1.45.41 1.34.63c.51.24 2.315 1.041 4.098 1.281 3.963.535 8.426.1 11.43-2.225 2.53-1.959 3.36-4.744 3.188-7.643a1.634 1.634 0 0 1 .394-1.179c.561-.644 2.154-2.52 2.157-2.524z"/></g></g></svg>