<svg xmlns="http://www.w3.org/2000/svg" width="30" height="30" viewBox="0 0 30 30"><g><g><g/><g><g><g><path fill="#f83e46" d="M22.661 8.093a2.218 2.218 0 0 1 2.216 2.215v9.375a2.218 2.218 0 0 1-2.216 2.215H7.336a2.217 2.217 0 0 1-2.216-2.21v-9.374a2.217 2.217 0 0 1 2.216-2.215zM26.4 19.688v-9.374a3.74 3.74 0 0 0-3.739-3.736H7.336A3.74 3.74 0 0 0 3.6 10.313v9.374a3.74 3.74 0 0 0 3.736 3.735h15.325a3.74 3.74 0 0 0 3.739-3.734z"/></g></g><g><g><path fill="#f83e46" d="M16.67 14.751l-3.193 1.705v-3.393zm-3.596 3.642l5.573-2.976a.76.76 0 0 0 0-1.343l-5.573-2.944a.76.76 0 0 0-1.116.672v5.921c0 .267.14.514.368.652a.772.772 0 0 0 .748.018z"/></g></g></g></g></g></svg>