<svg xmlns="http://www.w3.org/2000/svg" width="33" height="33" viewBox="0 0 33 33"><g><g><g><g><g><path fill="#00334c" d="M30.962 29.53h-.733l-.031-.081a2.107 2.107 0 0 0-1.962-1.365 2.082 2.082 0 0 0-.628.1l-.164.054v-4.16h.624v2.242c0 .359.293.652.653.652h2.24zm-2.783 1.444a.803.803 0 0 1-.734-.792.794.794 0 1 1 1.589-.001.797.797 0 0 1-.793.793zm1.195-6.89h.39l.796 1.589h-1.186zm-3.232 5.444h-3.145l-.03-.082a2.06 2.06 0 0 0-.895-1.07 2.087 2.087 0 0 0-3.023 1.07l-.03.082h-1.215V22.15h8.34zm-5.135 1.446a.796.796 0 0 1-.795-.794.795.795 0 0 1 1.589 0 .795.795 0 0 1-.794.794zm9.746-7.837a.647.647 0 0 0-.583-.36h-2.722V21.5a.654.654 0 0 0-.653-.653H17.15a.653.653 0 0 0-.652.653v8.68c0 .36.292.654.652.654h1.868l.03.08a2.098 2.098 0 0 0 2.478 1.297 2.09 2.09 0 0 0 1.439-1.296l.03-.081h3.254l.03.08a2.09 2.09 0 1 0 3.917 0l.032-.08h1.385c.36 0 .653-.293.653-.653v-3.852a.647.647 0 0 0-.065-.297z"/></g><g><path fill="#00334c" d="M19.748 11.12l.038-.155a.71.71 0 0 0-.691-.885h-3.118a.713.713 0 0 0-.653.424l-.274.616h-.477a5.943 5.943 0 0 1-4.196-1.741L8.344 7.343H23.42a5.125 5.125 0 0 1 2.008.414l-.05.24h-2.83v1.426h5.08l1.05 1.05a.361.361 0 0 1 .096.362l-.018.049c-.05.125-.17.208-.335.234l-8.514.002zm-4.571 4.027l-.31-.104 1.572-3.537h1.286zm-7.841-13h1.357l1.13 3.773H7.337zm8.785 1.097l1.695 2.675h-1.277l-.644-2.577zm14.09 7.499a1.814 1.814 0 0 0-.53-1.281l-1.61-1.613a6.57 6.57 0 0 0-4.65-1.93h-3.925l-2.39-3.824a.708.708 0 0 0-.605-.335h-1.56a.716.716 0 0 0-.713.71.663.663 0 0 0 .02.176l.819 3.274h-3.755L9.906 1.228A.717.717 0 0 0 9.224.72h-2.6a.73.73 0 0 0-.505.206.713.713 0 0 0-.212.508l.003 5.392h.022l.03.078a.702.702 0 0 0 .155.233l3.248 3.248a7.399 7.399 0 0 0 4.865 2.15l.184.01-1.171 2.635c-.16.36.003.782.36.94l1.625.547a.73.73 0 0 0 .809-.27l2.7-3.852h9.668c.994 0 1.804-.81 1.806-1.802z"/></g><g><path fill="#00334c" d="M10.324 30.298l-.034.023a2.79 2.79 0 0 0-.46.38.717.717 0 0 1-.575.275.725.725 0 0 1-.596-.31 2.254 2.254 0 0 0-.762-.516l-.077-.031v-6.262l.164.056 4.13 1.376zm-2.95-7.965a.653.653 0 0 0-.41.002L3.67 23.432l.669-3.683h5.66l.668 3.682zm-.857 7.788l-.078.032a2.303 2.303 0 0 0-.78.545.728.728 0 0 1-.576.278.726.726 0 0 1-.447-.154.884.884 0 0 1-.16-.163 2.934 2.934 0 0 0-.43-.341l-.034-.022-.014-.04-1.774-4.967 4.293-1.432zm.339-12.3h.624v.625h-.624zm5.997 12.867l-.012-.013a2.115 2.115 0 0 0-.922-.577l-.125-.038 1.772-4.961a.654.654 0 0 0-.412-.838l-1.073-.36-.894-4.92a.655.655 0 0 0-.64-.535H8.785V17.17a.653.653 0 0 0-.652-.653H6.205a.653.653 0 0 0-.652.653v1.275h-1.76a.653.653 0 0 0-.637.535l-.896 4.922-1.08.358a.656.656 0 0 0-.407.84l1.77 4.96-.124.038a2.17 2.17 0 0 0-.936.593.755.755 0 0 1-.581.283l-.167.003v1.302l.17-.001a2.074 2.074 0 0 0 1.51-.68.753.753 0 0 1 .564-.283.439.439 0 0 1 .218.032c.16.078.284.167.382.269a2.08 2.08 0 0 0 1.505.66 2.041 2.041 0 0 0 1.51-.685.73.73 0 0 1 1.022-.126c.054.04.1.086.152.154.375.41.92.653 1.492.657a2.06 2.06 0 0 0 1.494-.652c.09-.093.19-.17.3-.232l.116-.054a.596.596 0 0 1 .17-.026.778.778 0 0 1 .602.305c.376.413.92.655 1.49.659h.17v-1.301l-.166-.003a.761.761 0 0 1-.583-.285z"/></g></g></g></g></g></svg>