<svg xmlns="http://www.w3.org/2000/svg" width="35" height="27" viewBox="0 0 35 27"><g><g><g><path fill="#00334c" d="M30.032 22.375a2.552 2.552 0 0 1-2.548 2.549 2.552 2.552 0 0 1-2.548-2.549 2.55 2.55 0 0 1 2.548-2.548 2.55 2.55 0 0 1 2.548 2.548zm-5.766 2.549H15.17a4.125 4.125 0 0 0 .812-1.769h7.472c.125.645.406 1.254.812 1.769zm-9.764-2.549a2.552 2.552 0 0 1-2.548 2.549 2.552 2.552 0 0 1-2.548-2.549 2.55 2.55 0 0 1 2.548-2.548 2.55 2.55 0 0 1 2.548 2.548zm18.303-6.887l-7.87.007v-4.542h3.335zm1.396-.799l-6.95-6.96a1.883 1.883 0 0 0-1.33-.554h-9.755v1.559h2.773v8.319h1.559V8.734h5.415c.087 0 .172.035.233.097l.563.563H24.71c-.735 0-1.334.598-1.334 1.334v4.992c0 .735.599 1.334 1.334 1.334h8.095v4.21a.33.33 0 0 1-.33.33h-.963a4.076 4.076 0 0 0-1.571-2.508 4.072 4.072 0 0 0-3.042-.776 4.128 4.128 0 0 0-3.444 3.284h-7.471a4.111 4.111 0 0 0-4.612-3.284 4.128 4.128 0 0 0-3.444 3.284h-.966a.33.33 0 0 1-.33-.33v-5.215H5.071v5.217a1.89 1.89 0 0 0 1.889 1.888h.963c.125.645.406 1.254.812 1.768H.636v1.559h26.848a4.137 4.137 0 0 0 4.025-3.328h.966a1.891 1.891 0 0 0 1.889-1.888v-6.1a.785.785 0 0 0-.163-.476z"/></g><g><path fill="#00334c" d="M8.071 2.079a5.883 5.883 0 0 1 5.877 5.876 5.883 5.883 0 0 1-5.877 5.876 5.883 5.883 0 0 1-5.876-5.876 5.883 5.883 0 0 1 5.876-5.876zm0 13.31c4.1 0 7.436-3.335 7.436-7.435 0-4.099-3.336-7.435-7.436-7.435C3.972.519.636 3.855.636 7.955c.001 4.099 3.336 7.434 7.435 7.434z"/></g><g><path fill="#00334c" d="M6.765 8.581l.158-.159a1.614 1.614 0 0 1-.475-1.147c0-.434.169-.841.476-1.148a1.613 1.613 0 0 1 1.147-.475 1.624 1.624 0 0 1 1.147 2.77L8.071 9.569 6.924 8.422l-.159.159zm1.306 3.191l2.249-2.248a3.183 3.183 0 0 0 0-4.497 3.185 3.185 0 0 0-4.497 0 3.183 3.183 0 0 0 0 4.497z"/></g></g></g></svg>