<svg xmlns="http://www.w3.org/2000/svg" width="32" height="32" viewBox="0 0 32 32"><g><g><g><path fill="#00334c" d="M22.839 5.043l-.001 7.616a4.422 4.422 0 0 1-1.824 3.568l-5.163 3.723-5.164-3.722a4.423 4.423 0 0 1-1.824-3.565v-7.62l6.988-3.059zm1.533 7.617V4.542a.767.767 0 0 0-.46-.703L16.158.444a.78.78 0 0 0-.614 0L7.79 3.839a.766.766 0 0 0-.461.703v8.117a5.962 5.962 0 0 0 2.461 4.808l5.359 3.865a1.196 1.196 0 0 0 1.402.001l5.361-3.866a5.96 5.96 0 0 0 2.46-4.807z"/></g><g><path fill="#00334c" d="M10.934 12.659V6.396l4.913-2.154 4.927 2.154v6.263a2.346 2.346 0 0 1-.966 1.887l-3.954 2.851-3.954-2.85a2.35 2.35 0 0 1-.966-1.888zM11 15.792l4.402 3.176a.768.768 0 0 0 .891-.001l4.4-3.175a3.881 3.881 0 0 0 1.604-3.131V5.896a.77.77 0 0 0-.45-.704l-5.69-2.49a.767.767 0 0 0-.609 0l-5.691 2.49a.77.77 0 0 0-.46.704v6.765A3.883 3.883 0 0 0 11 15.792z"/></g><g><path fill="#00334c" d="M8.282 22.769a.761.761 0 0 0 .236-.538.777.777 0 0 0-.232-.565l-2.362-2.361a4.774 4.774 0 0 1-.456-.527 1.085 1.085 0 0 1 1.148.141c.993.91 2.129 1.629 3.384 2.14a2.46 2.46 0 0 1 1.126.835l.002.002c.566.737.87 1.655.855 2.588v.712H8.061l-3.514-3.513a4.213 4.213 0 0 1-.861-1.245l-2.024-4.454a.36.36 0 0 1 .185-.481.36.36 0 0 1 .48.182l1.157 2.699c.32.752.775 1.427 1.353 2.005l2.361 2.358a.768.768 0 0 0 1.084.022zm4.734 3.961v3.636H7.829V26.73zm.5-2.243a5.698 5.698 0 0 0-1.184-3.541 3.95 3.95 0 0 0-1.825-1.336 9.969 9.969 0 0 1-2.898-1.862 2.615 2.615 0 0 0-2.866-.311l-1.01-2.36a1.9 1.9 0 0 0-2.515-.936 1.886 1.886 0 0 0-.954 2.475l2.025 4.456a5.739 5.739 0 0 0 1.173 1.695l3.031 3.032a1.275 1.275 0 0 0-.198.678v4.134a1.27 1.27 0 0 0 .37.91c.241.245.562.381.914.383h5.687c.708 0 1.284-.576 1.284-1.284v-4.14c0-.623-.446-1.143-1.034-1.259z"/></g><g><path fill="#00334c" d="M11.198 29.315h.517a.768.768 0 0 0 0-1.534h-.517a.768.768 0 0 0 0 1.534z"/></g><g><path fill="#00334c" d="M23.873 26.727v3.64h-5.187v-3.64zm-.231-1.53H19.72v-.716a4.156 4.156 0 0 1 .856-2.585 2.473 2.473 0 0 1 1.135-.841 11.231 11.231 0 0 0 3.366-2.128 1.09 1.09 0 0 1 1.161-.153 4.782 4.782 0 0 1-.461.532l-2.365 2.365a.767.767 0 0 0 1.088 1.081l2.362-2.362a6.327 6.327 0 0 0 1.353-2.004l1.156-2.698a.363.363 0 0 1 .482-.184.363.363 0 0 1 .186.479l-2.024 4.457a4.228 4.228 0 0 1-.862 1.245zm7.849-10.031a1.88 1.88 0 0 0-.99-1.063c-.951-.434-2.08-.014-2.535.981l-1.005 2.342a2.625 2.625 0 0 0-2.878.328 9.961 9.961 0 0 1-2.875 1.849 3.959 3.959 0 0 0-1.837 1.338 5.692 5.692 0 0 0-1.185 3.542v.737a1.286 1.286 0 0 0-1.034 1.257v4.14c0 .708.576 1.284 1.284 1.284h5.687c.708 0 1.284-.576 1.284-1.284v-4.141a1.275 1.275 0 0 0-.198-.677l3.031-3.032a5.748 5.748 0 0 0 1.173-1.693l2.025-4.456c.211-.461.23-.976.053-1.452z"/></g><g><path fill="#00334c" d="M19.987 29.315h.517a.768.768 0 0 0 0-1.534h-.517a.768.768 0 0 0 0 1.534z"/></g><g><path fill="#00334c" d="M14.358 14.17a.766.766 0 0 0 .453.149c.045-.003.09-.003.134-.011a.772.772 0 0 0 .51-.33l4.137-6.202a.768.768 0 0 0-1.277-.849l-3.687 5.529-1.416-1.063a.75.75 0 0 0-.562-.159.757.757 0 0 0-.513.286.758.758 0 0 0-.161.565.783.783 0 0 0 .313.533z"/></g></g></g></svg>