<svg xmlns="http://www.w3.org/2000/svg" width="35" height="35" viewBox="0 0 35 35"><g><g><g><g><g><path fill="#00334c" d="M8.914 16.167l-3.595-3.596a5.054 5.054 0 0 1-1.491-3.597 5.092 5.092 0 0 1 5.086-5.086 5.05 5.05 0 0 1 3.598 1.49 5.091 5.091 0 0 1-.001 7.193zm6.519-7.191a6.475 6.475 0 0 0-1.908-4.609 6.48 6.48 0 0 0-4.609-1.91h-.001c-1.74 0-3.377.678-4.608 1.909a6.48 6.48 0 0 0-1.91 4.609c0 1.741.678 3.378 1.909 4.608l4.608 4.609 4.611-4.609a6.512 6.512 0 0 0 1.908-4.607z"/></g><g><path fill="#00334c" d="M8.915 10.396a1.423 1.423 0 0 1 0-2.844h.001c.783.003 1.42.639 1.421 1.422 0 .784-.637 1.422-1.422 1.422zm0-4.278a2.857 2.857 0 0 0-2.854 2.855 2.857 2.857 0 0 0 2.854 2.854 2.857 2.857 0 0 0 2.855-2.854 2.857 2.857 0 0 0-2.855-2.855z"/></g><g><path fill="#00334c" d="M30.881 28.921l-2.301 2.301-2.36-2.362a3.26 3.26 0 0 1 .059-4.544 3.26 3.26 0 0 1 4.603.001 3.26 3.26 0 0 1-.001 4.604zm1.013-5.614a4.65 4.65 0 0 0-3.313-1.373 4.65 4.65 0 0 0-3.313 1.373 4.648 4.648 0 0 0-1.373 3.312c0 1.252.487 2.429 1.372 3.314l3.313 3.313 3.314-3.313a4.69 4.69 0 0 0 0-6.626z"/></g><g><path fill="#00334c" d="M9.63 27.631a4.27 4.27 0 0 1 4.265-4.265h3.399a3.455 3.455 0 0 0 3.45-3.449 3.422 3.422 0 0 0-1.01-2.44 3.424 3.424 0 0 0-2.44-1.012H13.94v1.431h3.354a2.013 2.013 0 0 1 1.985 1.981 2.008 2.008 0 0 1-.565 1.438 2.003 2.003 0 0 1-1.416.619h-3.403c-3.074.031-5.604 2.56-5.635 5.637a5.702 5.702 0 0 0 5.637 5.755h10.025v-1.431H13.895a4.27 4.27 0 0 1-4.265-4.264z"/></g></g><g><path fill="#fff" d="M24.123 33.526h-.001z"/></g></g><g><g/></g></g></g></svg>