<svg xmlns="http://www.w3.org/2000/svg" width="35" height="30" viewBox="0 0 35 30"><g><g><g><path fill="#00334c" d="M32.766 1.494l-.004 4.059H8.715V1.494zM19.863 16.577H2.032v-2.709H19.86zm.383 1.448h.151a.884.884 0 0 0 .847-.91v-3.781a.884.884 0 0 0-.844-.917H10.034V7h21.411v13.298H20.246zm-1.384 0v9.704H3.031v-9.704zM33.233.051H8.246a.934.934 0 0 0-.892.965v5.005a.926.926 0 0 0 .247.671c.169.185.4.292.656.303h.414v5.422H1.49a.885.885 0 0 0-.847.91v3.778a.898.898 0 0 0 .864.925h.135v10.227a.898.898 0 0 0 .863.925h16.894a.886.886 0 0 0 .847-.911v-6.53h11.668a.936.936 0 0 0 .891-.965V7h.428a.932.932 0 0 0 .891-.965V1.026a.938.938 0 0 0-.891-.975z"/></g><g><path fill="#00334c" d="M23.212 9.984v.078a.3.3 0 0 1-.275.313h-4.382a.307.307 0 0 1-.287-.322v-.078c-.006-.162.123-.306.275-.314h4.383a.308.308 0 0 1 .286.323zm-.275-1.776h-4.405a1.704 1.704 0 0 0-1.625 1.77v.058a1.71 1.71 0 0 0 1.625 1.782h4.416a1.704 1.704 0 0 0 1.624-1.77v-.059a1.71 1.71 0 0 0-1.635-1.781z"/></g><g><path fill="#00334c" d="M9.2 20.171v-.072c-.003-.055.04-.106.085-.108l3.308-.001c.059.003.103.055.1.122v.066c.003.059-.046.106-.085.108l-3.307.001c-.061-.003-.104-.054-.101-.116zm.071 1.45l.005-.125.009.126 3.338-.001a1.412 1.412 0 0 0 1.345-1.456v-.041a1.423 1.423 0 0 0-1.36-1.469H9.271a1.41 1.41 0 0 0-1.345 1.457v.041a1.415 1.415 0 0 0 1.345 1.468z"/></g></g></g></svg>