<svg xmlns="http://www.w3.org/2000/svg" width="1366" height="768" viewBox="0 0 1366 768"><defs><linearGradient id="4lxtb" x1="1135.04" x2="826.88" y1="369.46" y2="653.29" gradientUnits="userSpaceOnUse"><stop offset="0" stop-color="#ff3c45"/><stop offset="1" stop-color="#f96873"/></linearGradient><linearGradient id="4lxtc" x1="1304.2" x2="1122.29" y1="506.36" y2="673.9" gradientUnits="userSpaceOnUse"><stop offset="0" stop-color="#ff3c45"/><stop offset="1" stop-color="#f96873"/></linearGradient><clipPath id="4lxta"><path d="M0 768V0h1366v768z"/></clipPath></defs><g><g><g/><g clip-path="url(#4lxta)" opacity=".1"><g opacity=".1"><path fill="url(#4lxtb)" d="M1076.822 489.628l89.213-107.903c3.84-4.643 1.62-11.7-4.181-13.31l-141.088-39.191a6.878 6.878 0 0 0-1.841-.256c-4.143 0-7.538 3.851-6.614 8.203l4.004 18.879c.438 2.064-.903 3.777-2.756 4.788-45.467 24.86-66.76 67.668-72.5 87.031-29.735 100.353 7.931 166.02 25.977 193.305a21.776 21.776 0 0 0 18.176 9.753c.443 0 .888-.014 1.334-.038l.222-.014a16.32 16.32 0 0 0 14.009-9.858l.552-1.295c2.254-5.258 2.782-11.124 1.424-16.685-23.981-98.29 22.417-153.265 41.304-170.883a6.105 6.105 0 0 1 4.196-1.665c2.614 0 5.162 1.652 6.003 4.486l9.475 31.98c1.031 3.478 4.135 5.424 7.288 5.424a7.452 7.452 0 0 0 5.803-2.751z"/></g><g opacity=".1"><g opacity=".1"><path fill="url(#4lxtc)" d="M1331.32 576.1c0-71.272-51.03-131.987-116.292-150.882l-43.889 151.293 77.359 137.678c49.247-26.422 82.822-78.4 82.822-138.09z"/></g></g><g opacity=".1"><path fill="#00334c" d="M1207.367 443.35l-44.732 112.138c-7.579 3.881-12.778 11.755-12.778 20.856 0 12.595 9.94 22.84 22.401 23.39l28.119 37.855c2.562 2.579 6.806-.264 5.396-3.615l-13.637-43.715c2.88-3.895 4.607-8.698 4.607-13.915 0-6.251-2.463-11.916-6.455-16.12 6.66-34.1 22.651-114.71 22.651-114.71.819-3.418-3.873-5.238-5.572-2.164z"/></g><g opacity=".1"><path fill="#00334c" d="M1174.71 350.558c-4.924 0-9.798.209-14.642.527l6.125 1.702a24.442 24.442 0 0 1 16.837 16.282 24.44 24.44 0 0 1-4.497 22.989l-5.954 7.204c.711-.01 1.415-.05 2.13-.05 96.261 0 174.803 77.298 176.836 173.08h-46.074v8.104h46.07c-2.269 94.567-79.122 170.978-173.858 172.548v-45.09h-8.103v45.035c-68.866-1.977-127.942-43.518-155.36-102.633-5.349 9.747-15.195 16.122-26.46 16.807l-.237.013c-.772.047-1.542.07-2.312.07-6.772 0-13.255-1.826-18.925-5.083 33.868 81.829 114.497 139.574 208.423 139.574 124.366 0 225.542-101.175 225.542-225.538 0-124.365-101.176-225.541-225.542-225.541z"/></g></g></g><g><g/></g><g><g><g><text dominant-baseline="text-before-edge" style="line-height:18px;font-kerning:normal" fill="#fff" font-family="'Proxima Nova','ProximaNova-Bold'" font-size="12" font-style="none" font-weight="700" letter-spacing="1.8" transform="translate(159 699)"><tspan style="text-transform:uppercase">переглянути</tspan><tspan style="text-transform:uppercase"> </tspan><tspan style="text-transform:uppercase">відео</tspan></text></g></g><g><g/></g></g></g></svg>