<svg xmlns="http://www.w3.org/2000/svg" width="26" height="26" viewBox="0 0 26 26"><g><g><g><path fill="#f83e46" d="M13 12.243a3.41 3.41 0 0 1 3.406 3.406 3.411 3.411 0 0 1-2.475 3.276.238.238 0 0 0-.174.228v.638a.771.771 0 0 1-.72.777.757.757 0 0 1-.794-.756v-.66a.237.237 0 0 0-.173-.227 3.411 3.411 0 0 1-2.476-3.255.77.77 0 0 1 .735-.777.757.757 0 0 1 .779.756c0 1.088.923 1.965 2.027 1.888a1.9 1.9 0 0 0 1.753-1.753A1.894 1.894 0 0 0 13 13.757a3.41 3.41 0 0 1-3.406-3.406 3.411 3.411 0 0 1 2.475-3.276.238.238 0 0 0 .174-.228V6.21c0-.407.313-.758.72-.777a.757.757 0 0 1 .794.756v.66c0 .106.071.198.173.227a3.411 3.411 0 0 1 2.476 3.255.77.77 0 0 1-.735.777.757.757 0 0 1-.779-.756 1.894 1.894 0 0 0-2.027-1.888 1.9 1.9 0 0 0-1.753 1.753A1.894 1.894 0 0 0 13 12.243zm8.563-7.806A12.031 12.031 0 0 0 13 .89c-3.235 0-6.276 1.26-8.563 3.547A12.031 12.031 0 0 0 .89 13c0 3.235 1.26 6.276 3.547 8.563A12.03 12.03 0 0 0 13 25.11c3.235 0 6.276-1.26 8.563-3.547A12.031 12.031 0 0 0 25.11 13c0-3.235-1.26-6.276-3.547-8.563z"/></g></g></g></svg>