<svg xmlns="http://www.w3.org/2000/svg" width="36" height="36" viewBox="0 0 36 36"><g><g><g><g><g><g><path fill="#f83e46" d="M30.83 5h-6.665a.834.834 0 0 0-.833.833v8.333a.834.834 0 0 0 1.666 0v-2.5h5.833c.46 0 .833-.373.833-.833v-5A.834.834 0 0 0 30.831 5z"/></g></g></g><g><g><g><path fill="#f83e46" d="M28.331 23.332H20a1.668 1.668 0 0 1-1.667-1.667c0-.92.748-1.666 1.667-1.666h1.82a2.494 2.494 0 0 0 2.346 1.666 2.5 2.5 0 0 0 0-5 2.492 2.492 0 0 0-2.347 1.667h-1.82a3.336 3.336 0 0 0-3.332 3.333 3.336 3.336 0 0 0 3.333 3.333h8.332a1.667 1.667 0 0 1 0 3.333H13.18a2.494 2.494 0 0 0-2.346-1.666 2.5 2.5 0 0 0 0 5 2.492 2.492 0 0 0 2.346-1.667h15.152a3.336 3.336 0 0 0 3.333-3.333 3.336 3.336 0 0 0-3.333-3.333z"/></g></g></g><g><g><g><path fill="#f83e46" d="M10.833 18.332a2.5 2.5 0 0 1 0-5 2.5 2.5 0 0 1 0 5zm0-8.332A5.84 5.84 0 0 0 5 15.832c0 2.993 4.68 8.294 5.213 8.89a.837.837 0 0 0 .62.276.837.837 0 0 0 .62-.277c.533-.595 5.213-5.896 5.213-8.889A5.84 5.84 0 0 0 10.833 10z"/></g></g></g></g><g/></g></g></svg>