<svg xmlns="http://www.w3.org/2000/svg" width="184" height="59" viewBox="0 0 184 59"><defs><clipPath id="hcnca"><path d="M2.9 57.696V3.173h176.87v54.523z"/></clipPath></defs><g><g><g/><g><g><g/><g clip-path="url(#hcnca)"><path fill="#05304c" d="M73.26 21.583c-.027 1.64-.298 3.149-.813 4.524-.515 1.376-1.243 2.572-2.189 3.586-.944 1.015-2.092 1.807-3.44 2.377-1.348.57-2.87.855-4.565.855h-5.629V10.158h5.63c1.722 0 3.272.3 4.648.896 1.375.599 2.537 1.418 3.48 2.46.946 1.043 1.669 2.26 2.17 3.65.5 1.39.736 2.863.708 4.42zm5.38-6.297c-.779-2.028-1.864-3.793-3.252-5.295-1.392-1.501-3.052-2.696-4.984-3.585-1.932-.89-4.038-1.335-6.317-1.335H50.16v33.358h13.927c2.279 0 4.385-.438 6.317-1.313a15.206 15.206 0 0 0 4.984-3.586c1.388-1.516 2.473-3.28 3.252-5.296.777-2.016 1.167-4.176 1.167-6.483z"/></g><g clip-path="url(#hcnca)"><path fill="#05304c" d="M89.397 24.002c.473-1.528 1.306-2.758 2.502-3.69 1.195-.931 2.545-1.398 4.044-1.398 1.53 0 2.9.467 4.108 1.398 1.21.932 2.05 2.162 2.523 3.69zm19.474 2.335c0-1.861-.348-3.565-1.043-5.108a12.245 12.245 0 0 0-2.835-3.982 13.281 13.281 0 0 0-4.128-2.606 12.961 12.961 0 0 0-4.879-.938c-1.78 0-3.447.333-5.004 1a13.247 13.247 0 0 0-4.086 2.71 12.475 12.475 0 0 0-2.752 4.025c-.667 1.542-1 3.19-1 4.941s.333 3.398 1 4.94a12.657 12.657 0 0 0 2.73 4.025c1.154 1.14 2.516 2.043 4.087 2.71 1.57.667 3.26 1.001 5.067 1.001 1.778 0 3.467-.257 5.066-.772 1.598-.513 3.23-1.396 4.9-2.648l-3.795-3.794c-.723.64-1.627 1.147-2.71 1.523a9.887 9.887 0 0 1-3.253.562c-.89 0-1.703-.132-2.44-.396a6.988 6.988 0 0 1-1.98-1.084 6.591 6.591 0 0 1-1.48-1.627 8.281 8.281 0 0 1-.939-1.98h19.265c.055-.444.104-.876.146-1.292.042-.417.063-.82.063-1.21z"/></g><g clip-path="url(#hcnca)"><path fill="#05304c" d="M136.264 14.328l-9.047 24.143h-5.921l-9.09-24.143h6.588l5.463 16.178 5.462-16.178z"/></g><g clip-path="url(#hcnca)"><path fill="#05304c" d="M139.514 11.397V5.142h6.255v6.255z"/></g><g clip-path="url(#hcnca)"><path fill="#05304c" d="M139.598 38.444V14.3h6.087v24.143z"/></g><g clip-path="url(#hcnca)"><path fill="#05304c" d="M171.974 38.422h-7.13l-9.676-10.8v10.8h-6.128V5.071h6.128v19.466l8.424-10.217h7.005l-9.881 11.718z"/></g><g clip-path="url(#hcnca)"><path fill="#e54044" d="M15.603 17.072l7.717-9.335a.72.72 0 0 0-.361-1.152L10.752 3.194a.587.587 0 0 0-.73.688l.345 1.633c.038.179-.077.327-.238.415-3.934 2.15-5.777 5.854-6.272 7.529-2.572 8.682.686 14.364 2.248 16.724a1.884 1.884 0 0 0 1.686.84h.02a1.412 1.412 0 0 0 1.212-.854l.048-.112c.195-.455.24-.962.122-1.442-2.073-8.505 1.94-13.261 3.575-14.785a.539.539 0 0 1 .882.244l.82 2.767a.652.652 0 0 0 1.133.231"/></g><g clip-path="url(#hcnca)"><path fill="#e54044" d="M37.621 24.553c0-6.165-4.416-11.419-10.061-13.053L23.763 24.59 30.456 36.5c4.26-2.286 7.165-6.784 7.165-11.947"/></g><g clip-path="url(#hcnca)"><path fill="#05304c" d="M26.897 13.069l-3.87 9.7a2.025 2.025 0 0 0 .833 3.828l2.432 3.277c.222.223.589-.023.467-.313l-1.18-3.783a2.019 2.019 0 0 0-.16-2.598c.576-2.95 1.96-9.924 1.96-9.924.07-.295-.335-.453-.482-.187"/></g><g clip-path="url(#hcnca)"><path fill="#05304c" d="M24.071 5.04c-.425 0-.848.018-1.266.046l.53.147c.695.193 1.24.72 1.456 1.41.217.688.071 1.431-.389 1.987l-.515.624c.061 0 .122-.005.184-.005 8.329 0 15.124 6.689 15.3 14.975h-3.987v.701h3.986c-.196 8.182-6.846 14.792-15.042 14.927v-3.9h-.701v3.896c-5.958-.171-11.069-3.766-13.44-8.88a2.792 2.792 0 0 1-2.29 1.455l-.02.002a3.288 3.288 0 0 1-1.838-.435c2.931 7.08 9.905 12.075 18.032 12.075 10.76 0 19.512-8.752 19.512-19.512S34.831 5.04 24.071 5.04"/></g><g clip-path="url(#hcnca)"><path fill="#05304c" d="M147.631 55.471h-1.74v-7.034l-1.457.56v-1.47l3.197-1.188z"/></g><g clip-path="url(#hcnca)"><path fill="#05304c" d="M154.105 49.962c-.09.18-.211.334-.365.465a1.816 1.816 0 0 1-.538.314 1.78 1.78 0 0 1-.645.119c-.233 0-.447-.04-.645-.119a1.675 1.675 0 0 1-.516-.314 1.393 1.393 0 0 1-.467-1.037c0-.202.042-.394.124-.572.082-.18.197-.337.343-.472.145-.134.317-.241.516-.32.198-.078.412-.117.645-.117a1.802 1.802 0 0 1 1.183.437c.154.135.275.292.365.472.09.178.134.37.134.572zm1.986 1.02c0-.86-.101-1.587-.302-2.181-.203-.596-.472-1.074-.81-1.436a2.972 2.972 0 0 0-1.149-.786c-.43-.16-.87-.241-1.319-.241a3.439 3.439 0 0 0-2.36.91 3.204 3.204 0 0 0-.702.947 2.501 2.501 0 0 0-.258 1.105c0 .448.09.858.269 1.229.18.37.423.688.73.953.306.266.661.473 1.065.622.404.15.83.225 1.28.225.276 0 .564-.048.863-.146.299-.097.55-.224.751-.381 0 .306-.044.598-.134.874-.09.278-.214.52-.375.725a1.83 1.83 0 0 1-.568.487c-.217.12-.452.18-.705.18a1.87 1.87 0 0 1-1.011-.28 2.518 2.518 0 0 1-.763-.752l-1.167 1.178c.412.494.853.855 1.324 1.083.471.228 1.025.342 1.661.342.562 0 1.067-.112 1.52-.337.453-.224.838-.54 1.156-.948a4.55 4.55 0 0 0 .74-1.47 6.464 6.464 0 0 0 .264-1.902z"/></g><g clip-path="url(#hcnca)"><path fill="#05304c" d="M162.24 49.962c-.09.18-.212.334-.366.465a1.816 1.816 0 0 1-.538.314c-.206.08-.42.119-.646.119-.232 0-.446-.04-.644-.119a1.675 1.675 0 0 1-.516-.314 1.393 1.393 0 0 1-.466-1.037c0-.202.04-.394.123-.572.082-.18.197-.337.343-.472.145-.134.317-.241.516-.32.198-.078.412-.117.644-.117a1.803 1.803 0 0 1 1.184.437c.154.135.275.292.365.472.09.178.134.37.134.572zm1.985 1.02c0-.86-.101-1.587-.303-2.181-.202-.596-.471-1.074-.808-1.436a2.98 2.98 0 0 0-1.15-.786c-.43-.16-.869-.241-1.318-.241a3.439 3.439 0 0 0-2.362.91 3.203 3.203 0 0 0-.7.947 2.501 2.501 0 0 0-.259 1.105c0 .448.09.858.269 1.229.18.37.423.688.73.953.306.266.661.473 1.065.622.404.15.83.225 1.28.225.276 0 .564-.048.863-.146.299-.097.55-.224.752-.381 0 .306-.045.598-.135.874-.09.278-.214.52-.375.725a1.83 1.83 0 0 1-.568.487c-.217.12-.452.18-.705.18a1.87 1.87 0 0 1-1.011-.28 2.519 2.519 0 0 1-.763-.752l-1.167 1.178c.412.494.853.855 1.324 1.083.471.228 1.026.342 1.661.342a3.36 3.36 0 0 0 1.52-.337 3.31 3.31 0 0 0 1.157-.948 4.55 4.55 0 0 0 .74-1.47 6.464 6.464 0 0 0 .263-1.902z"/></g><g clip-path="url(#hcnca)"><path fill="#05304c" d="M171.866 52.756c0 .47-.088.888-.264 1.25a2.663 2.663 0 0 1-.706.909c-.295.243-.641.426-1.038.55a4.2 4.2 0 0 1-1.257.185c-.77 0-1.458-.147-2.064-.443-.606-.295-1.153-.743-1.638-1.341l1.2-1.212a3.49 3.49 0 0 0 1.054.96c.21.123.433.22.669.291.234.072.472.107.712.107.201 0 .395-.028.578-.085.183-.055.343-.137.482-.246.137-.11.25-.242.336-.404.087-.16.13-.35.13-.566 0-.277-.08-.496-.237-.658a1.51 1.51 0 0 0-.588-.363 2.85 2.85 0 0 0-.752-.152 10.074 10.074 0 0 0-.712-.028v-1.256c.202 0 .426-.012.673-.034.247-.022.477-.073.69-.153.212-.078.392-.195.538-.352.146-.157.219-.367.219-.629 0-.193-.037-.363-.112-.504a1.05 1.05 0 0 0-.297-.353 1.262 1.262 0 0 0-.426-.209 1.922 1.922 0 0 0-.511-.067c-.913 0-1.628.381-2.144 1.145l-1.21-1.2c.448-.54.932-.934 1.452-1.185.52-.25 1.132-.375 1.834-.375a3.906 3.906 0 0 1 2.172.672c.31.218.563.489.756.815.195.325.293.693.293 1.105 0 .209-.036.409-.108.6a2.202 2.202 0 0 1-.694.965c-.161.13-.331.24-.511.33.202.076.393.176.573.303.179.128.335.275.47.443.135.17.24.352.32.55.08.199.118.41.118.635"/></g><g clip-path="url(#hcnca)"><path fill="#05304c" d="M176.736 7.088c0 .242-.09.444-.274.607a.902.902 0 0 1-.616.242h-1.315v-1.74h1.315c.23 0 .434.085.616.253.183.17.274.382.274.638zm-.547 1.456c.23 0 .496-.125.799-.375.303-.25.455-.61.455-1.081 0-.446-.157-.806-.474-1.082a1.652 1.652 0 0 0-1.123-.416h-2.002v4.915h.687V8.564h.85l1.274 1.941h.85zm1.861 2.063c-.715.714-1.571 1.071-2.568 1.071-1.012 0-1.87-.357-2.578-1.071-.709-.715-1.063-1.572-1.063-2.57 0-1.01.354-1.87 1.063-2.578.707-.707 1.566-1.062 2.578-1.062.997 0 1.853.355 2.568 1.062a3.496 3.496 0 0 1 1.073 2.578zm.475-5.612c-.829-.83-1.844-1.245-3.043-1.245-1.187 0-2.199.418-3.034 1.254-.836.837-1.253 1.848-1.253 3.033 0 1.188.417 2.199 1.253 3.035.835.836 1.847 1.253 3.034 1.253 1.186 0 2.197-.417 3.034-1.253.836-.836 1.253-1.847 1.253-3.035z"/></g><g clip-path="url(#hcnca)"><path fill="#05304c" d="M50.568 55.541v-7.335h.572v7.335z"/></g><g clip-path="url(#hcnca)"><path fill="#05304c" d="M55.394 55.156c-.194 0-.375-.027-.543-.077l.543.594c1.573 0 2.563-1.242 2.563-2.793 0-1.551-.99-2.782-2.563-2.782-1.55 0-2.551 1.231-2.551 2.782l.727.796a2.863 2.863 0 0 1-.11-.796c0-1.177.702-2.266 1.934-2.266 1.254 0 1.947 1.09 1.947 2.266zm-.543-.077c-.648-.195-1.088-.738-1.281-1.403z"/></g><g clip-path="url(#hcnca)"><path fill="#05304c" d="M61.863 55.134c-1.178 0-1.86-.968-1.86-2.254 0-1.288.682-2.266 1.86-2.266.736 0 1.44.45 1.748.968v2.584zm-2.155 1.76c.626.637 1.197.802 2.088.802 1.298 0 2.398-.583 2.398-2.21v-5.257h-.583v.858c-.428-.605-1.088-.99-1.848-.99-1.407 0-2.375 1.1-2.375 2.783 0 1.705.968 2.77 2.375 2.77.793 0 1.474-.45 1.848-.989v.836c0 1.22-.847 1.704-1.815 1.704-.792 0-1.297-.198-1.76-.747l-.328.44z"/></g><g clip-path="url(#hcnca)"><path fill="#05304c" d="M66.203 50.23h.572v5.311h-.572zm-.154-1.276c0-.242.209-.43.44-.43.241 0 .44.188.44.43s-.199.44-.44.44z"/></g><g clip-path="url(#hcnca)"><path fill="#05304c" d="M68.322 54.837l.34-.429c.342.429.968.78 1.716.78.891 0 1.419-.461 1.419-1.077 0-1.452-3.355-.638-3.355-2.54 0-.814.694-1.474 1.892-1.474.913 0 1.518.352 1.903.78l-.32.408c-.307-.418-.88-.704-1.583-.704-.825 0-1.33.418-1.33.968 0 1.33 3.353.516 3.353 2.562 0 .858-.66 1.562-1.989 1.562-.859 0-1.518-.254-2.046-.836"/></g><g clip-path="url(#hcnca)"><path fill="#05304c" d="M74.365 54.518v-3.782h-.88v-.507h.88v-1.452h.583v1.452h1.077v.507h-1.077v3.695c0 .428.177.725.549.725.254 0 .474-.12.595-.253l.22.44c-.21.198-.463.33-.903.33-.703 0-1.044-.43-1.044-1.155"/></g><g clip-path="url(#hcnca)"><path fill="#05304c" d="M77.634 50.23h.572v5.311h-.572zm-.154-1.276c0-.242.209-.43.44-.43.242 0 .44.188.44.43a.44.44 0 0 1-.44.44z"/></g><g clip-path="url(#hcnca)"><path fill="#05304c" d="M79.879 52.88c0-1.55 1.023-2.782 2.583-2.782.925 0 1.452.363 1.882.902l-.396.351c-.386-.527-.87-.737-1.452-.737-1.242 0-2.002.99-2.002 2.266s.76 2.276 2.002 2.276c.583 0 1.066-.22 1.452-.748l.396.353c-.43.55-.957.912-1.882.912-1.56 0-2.583-1.242-2.583-2.793"/></g><g clip-path="url(#hcnca)"><path fill="#05304c" d="M85.604 54.837l.34-.429c.342.429.967.78 1.716.78.89 0 1.419-.461 1.419-1.077 0-1.452-3.355-.638-3.355-2.54 0-.814.693-1.474 1.891-1.474.914 0 1.519.352 1.904.78l-.32.408c-.308-.418-.88-.704-1.584-.704-.823 0-1.329.418-1.329.968 0 1.33 3.352.516 3.352 2.562 0 .858-.658 1.562-1.989 1.562-.857 0-1.517-.254-2.045-.836"/></g><g clip-path="url(#hcnca)"><path fill="#05304c" d="M94.312 52.88c0-1.55 1.024-2.782 2.585-2.782.923 0 1.452.363 1.881.902l-.396.351c-.385-.527-.87-.737-1.451-.737-1.244 0-2.002.99-2.002 2.266s.758 2.276 2.002 2.276c.581 0 1.066-.22 1.45-.748l.397.353c-.43.55-.958.912-1.881.912-1.56 0-2.585-1.242-2.585-2.793"/></g><g clip-path="url(#hcnca)"><path fill="#05304c" d="M102.421 55.156c-.194 0-.376-.027-.543-.077l.543.594c1.573 0 2.562-1.242 2.562-2.793 0-1.551-.99-2.782-2.562-2.782-1.551 0-2.552 1.231-2.552 2.782l.728.796a2.863 2.863 0 0 1-.111-.796c0-1.177.703-2.266 1.935-2.266 1.254 0 1.947 1.09 1.947 2.266zm-.543-.077c-.648-.195-1.088-.738-1.281-1.403z"/></g><g clip-path="url(#hcnca)"><path fill="#05304c" d="M113.016 55.541v-3.717c0-.748-.32-1.21-1.067-1.21-.572 0-1.22.419-1.516.902v4.025h-.584v-3.717c0-.748-.308-1.21-1.067-1.21-.56 0-1.198.43-1.517.914v4.013h-.572v-5.312h.572v.804c.22-.342.945-.935 1.716-.935.824 0 1.264.483 1.396 1 .297-.494 1.012-1 1.76-1 .978 0 1.451.55 1.451 1.616v3.827z"/></g><g clip-path="url(#hcnca)"><path fill="#05304c" d="M119.778 52.88c0 1.286-.671 2.276-1.859 2.276-.736 0-1.439-.462-1.748-.968v-2.627c.31-.507 1.012-.947 1.748-.947 1.188 0 1.86.98 1.86 2.266zm-3.607 1.803c.429.605 1.1.99 1.848.99 1.419 0 2.375-1.1 2.375-2.793 0-1.704-.956-2.782-2.375-2.782-.791 0-1.474.428-1.848.968v-.837h-.57v7.336h.57z"/></g><g clip-path="url(#hcnca)"><path fill="#05304c" d="M123.852 55.223c-.879 0-1.451-.562-1.451-1.31 0-.759.572-1.32 1.45-1.32.64 0 1.233.254 1.607.738v1.165zm2.178.318v-3.74c0-1.187-.858-1.704-1.935-1.704-.88 0-1.496.297-2.046.892l.32.395c.482-.55 1-.78 1.66-.78.79 0 1.43.429 1.43 1.22v1.078c-.463-.518-1.068-.759-1.804-.759-.924 0-1.859.605-1.859 1.759 0 1.144.947 1.771 1.86 1.771.735 0 1.33-.242 1.802-.76v.628z"/></g><g clip-path="url(#hcnca)"><path fill="#05304c" d="M131.613 55.541v-3.595c0-1.024-.516-1.332-1.286-1.332-.682 0-1.386.43-1.727.914v4.013h-.572v-5.312h.572v.804c.385-.462 1.143-.935 1.913-.935 1.077 0 1.672.528 1.672 1.726v3.717z"/></g><g clip-path="url(#hcnca)"><path fill="#05304c" d="M133.9 57.091c.12.055.33.088.462.088.352 0 .593-.144.803-.65l.417-.945-2.243-5.356h.638l1.935 4.641 1.914-4.64h.649l-2.749 6.477c-.286.67-.738.989-1.364.989-.175 0-.418-.032-.561-.076z"/></g></g></g></g></g></svg>