<svg xmlns="http://www.w3.org/2000/svg" width="40" height="40" viewBox="0 0 40 40"><defs><linearGradient id="jwnwa" x1="17.56" x2="-7.33" y1="4.27" y2="27.19" gradientUnits="userSpaceOnUse"><stop offset="0" stop-color="#ff3c45"/><stop offset="1" stop-color="#f96873"/></linearGradient><linearGradient id="jwnwb" x1="31.24" x2="16.56" y1="15.23" y2="28.77" gradientUnits="userSpaceOnUse"><stop offset="0" stop-color="#ff3c45"/><stop offset="1" stop-color="#f96873"/></linearGradient></defs><g><g><g><g><path fill="url(#jwnwa)" d="M12.858 13.975l7.205-8.714a.671.671 0 0 0-.338-1.075L8.33 1.02a.549.549 0 0 0-.683.642l.324 1.524c.035.167-.073.305-.223.387-3.672 2.008-5.391 5.465-5.855 7.029-2.401 8.105.64 13.408 2.098 15.612a1.759 1.759 0 0 0 1.576.784l.018-.001c.497-.03.935-.338 1.131-.796l.045-.105c.182-.424.224-.898.115-1.347-1.937-7.938 1.81-12.378 3.336-13.801a.504.504 0 0 1 .824.228l.764 2.582a.609.609 0 0 0 1.058.216z"/></g><g><g><path fill="url(#jwnwb)" d="M33.433 20.868c0-5.756-4.121-10.66-9.392-12.186l-3.545 12.22 6.248 11.118c3.977-2.134 6.689-6.332 6.689-11.152z"/></g></g><g><path fill="#fff" d="M23.412 10.167L19.8 19.223a1.891 1.891 0 0 0 .777 3.574l2.27 3.057c.208.208.55-.021.437-.292l-1.102-3.53a1.883 1.883 0 0 0-.149-2.426c.538-2.754 1.83-9.265 1.83-9.265.066-.276-.313-.423-.45-.174z"/></g><g><path fill="#fff" d="M20.774 2.744c-.398 0-.792.016-1.184.042l.495.137a1.97 1.97 0 0 1 .998 3.156l-.481.58c.057-.001.114-.005.172-.005 7.779 0 14.126 6.213 14.29 13.912h-3.723v.651h3.723c-.184 7.601-6.394 13.743-14.05 13.87v-3.625h-.655v3.62c-5.565-.16-10.34-3.498-12.555-8.25a2.611 2.611 0 0 1-2.138 1.351l-.02.001a3.079 3.079 0 0 1-1.716-.403C6.669 34.36 13.184 39 20.775 39 30.824 39 39 30.868 39 20.872S30.824 2.744 20.774 2.744z"/></g></g><g/></g></g></svg>