<svg xmlns="http://www.w3.org/2000/svg" width="35" height="35" viewBox="0 0 35 35"><g><g><g><g><path fill="#00334c" d="M25.951 20.654a4.066 4.066 0 0 0-4.053-3.921h-.005c-.455 0-.883-.234-1.13-.612l-.03-.05a.58.58 0 0 0-.988.608 2.507 2.507 0 0 0 2.148 1.218h.008a2.916 2.916 0 0 1 2.892 2.775l.01.194h1.156z"/></g><g><path fill="#00334c" d="M14.13 10.712v-3.06a1.68 1.68 0 0 1 1.666-1.682h4.77a1.679 1.679 0 0 1 1.667 1.682v3.06A4.082 4.082 0 0 1 18.18 14.8a4.084 4.084 0 0 1-4.05-4.087zm11.18-6.26a5.226 5.226 0 0 0-2.954-2.263.585.585 0 0 0-.304-.685C19.546.287 15.998.05 13.71 2.272a7.184 7.184 0 0 0-1.909 5.18v1.956a1.736 1.736 0 0 0 1.18 1.646 5.246 5.246 0 0 0 2.843 4.339 1.365 1.365 0 0 1-1.366 1.34 4.065 4.065 0 0 0-4.046 3.92l-.008.213h1.156l.01-.194a2.913 2.913 0 0 1 2.895-2.775h.02c.635 0 1.246-.246 1.703-.683a3.79 3.79 0 0 0 2.802.485.581.581 0 0 0-.246-1.136 2.614 2.614 0 0 1-1.913-.32c.051-.14.09-.284.116-.431.396.094.802.143 1.21.144h.011a5.231 5.231 0 0 0 5.226-5.214V7.654a2.843 2.843 0 0 0-2.825-2.846h-4.774a2.842 2.842 0 0 0-2.826 2.844v1.867a.58.58 0 0 1-.01-.111V7.45c0-2.158.72-3.81 2.083-4.775 1.342-.952 3.27-1.168 5.233-.602a.583.583 0 0 0 .326 1.01l.66.07a4.108 4.108 0 0 1 2.867 1.626 3.442 3.442 0 0 0-.675 2.055v2.573a.58.58 0 0 0 1.158 0V6.836a2.258 2.258 0 0 1 .65-1.598c.096-.1.155-.23.164-.363a.601.601 0 0 0-.116-.423z"/></g><g><g><path fill="#00334c" d="M19.21 28.378l1.124-1.123 4.083 4.087-1.122 1.122zm12.94-9.142A1.414 1.414 0 0 0 31 18.72l.008.205-.027-.205a1.724 1.724 0 0 0-1.597 1.3l-.464 1.905a5.994 5.994 0 0 1-3.213 3.994.365.365 0 0 1-.52-.39l.367-2.096a1.372 1.372 0 0 0-1.12-1.592 1.37 1.37 0 0 0-1.396.613l-2.264 3.535a1.07 1.07 0 0 0-1.198.22l-1.718 1.719a.64.64 0 0 0 0 .902l4.988 4.988a.64.64 0 0 0 .903 0l1.717-1.718c.332-.333.4-.844.194-1.248a14.06 14.06 0 0 0 1.432-.952.639.639 0 0 0-.77-1.016 13 13 0 0 1-1.55 1.01l-3.036-3.035 2.374-3.71c.026-.04.102-.057.141-.03a.1.1 0 0 1 .046.1l-.366 2.097c-.076.43.022.866.274 1.225.252.358.628.597 1.06.672.342.06.688.01 1.001-.142a7.273 7.273 0 0 0 3.893-4.838l.464-1.904a.421.421 0 0 1 .457-.325c.115.02.125.088.12.152a12.53 12.53 0 0 1-3.638 7.647.638.638 0 0 0 .446 1.09h.003a.633.633 0 0 0 .448-.185 13.798 13.798 0 0 0 4.007-8.433 1.407 1.407 0 0 0-.316-1.04z"/></g><g><path fill="#00334c" d="M11.071 25.308l-.366-2.093a.102.102 0 0 1 .084-.118c.04-.004.08.01.101.043l2.375 3.71-3.036 3.038a12.544 12.544 0 0 1-6.426-9.737.143.143 0 0 1 .031-.104c.024-.03.06-.048.14-.052.193.005.36.14.404.329l.464 1.9a7.267 7.267 0 0 0 3.893 4.84c.394.193.84.219 1.253.077a1.642 1.642 0 0 0 1.083-1.833zm4.354.902v-.001a1.071 1.071 0 0 0-1.198-.221l-2.264-3.535a1.376 1.376 0 0 0-2.516.979l.367 2.095a.365.365 0 0 1-.52.39 5.997 5.997 0 0 1-3.213-3.994l-.464-1.904a1.73 1.73 0 0 0-1.619-1.298 1.348 1.348 0 0 0-1.018.378 1.413 1.413 0 0 0-.446 1.173 13.732 13.732 0 0 0 6.807 10.575c-.207.406-.138.916.194 1.25l1.718 1.717a.638.638 0 0 0 .902.001l1.92-1.921a.636.636 0 0 0 0-.902.639.639 0 0 0-.902 0l-1.468 1.469-1.122-1.12 4.085-4.081 1.123 1.122-1.395 1.394a.64.64 0 0 0 0 .902c.242.24.662.24.903 0l1.845-1.845a.64.64 0 0 0 0-.902z"/></g></g></g><g/></g></g></svg>