<svg xmlns="http://www.w3.org/2000/svg" width="29" height="33" viewBox="0 0 29 33"><g><g><g><path fill="#00334c" d="M19.42 9.067H4.573a.728.728 0 0 0 0 1.454H19.42a.728.728 0 0 0 0-1.454z"/></g><g><path fill="#00334c" d="M4.574 7.365H12a.729.729 0 0 0 .728-.727.729.729 0 0 0-.728-.727H4.574a.728.728 0 0 0 0 1.454z"/></g><g><path fill="#00334c" d="M19.42 11.878H4.573a.728.728 0 0 0 0 1.455H19.42a.729.729 0 0 0 0-1.455z"/></g><g><path fill="#00334c" d="M18.21 4.77V3.211l2.692 2.698h-1.554A1.147 1.147 0 0 1 18.21 4.77zM3.205 28.558a1.147 1.147 0 0 1-1.139-1.139V3.327a1.145 1.145 0 0 1 1.138-1.139H16.75v2.578a2.606 2.606 0 0 0 2.6 2.597h2.58v7.628a.728.728 0 0 0 1.454 0V7.223a2.144 2.144 0 0 0-.629-1.517l-4.348-4.349a2.146 2.146 0 0 0-1.51-.628H3.204A2.605 2.605 0 0 0 .607 3.326v24.089a2.605 2.605 0 0 0 2.598 2.597h4.751a.729.729 0 0 0 .728-.727.729.729 0 0 0-.728-.727z"/></g><g><path fill="#00334c" d="M5.676 23.768l3.676-6.205.783.463a.598.598 0 0 1 .221.8l-3.078 5.196a.6.6 0 0 1-.752.251zm13.712.845a.719.719 0 0 0-.55-.079.728.728 0 0 0-.191 1.33l3.048 1.806a.352.352 0 0 1 .157.214.354.354 0 0 1-.04.262.35.35 0 0 1-.466.121l-3.054-1.809a.728.728 0 0 0-.996.254.728.728 0 0 0 .255.996l2.248 1.333a.34.34 0 0 1 .16.211.348.348 0 0 1-.515.383l-2.087-1.236a.723.723 0 0 0-.55-.079.724.724 0 0 0-.498.442 1.788 1.788 0 0 0-1.022-.901 1.793 1.793 0 0 0-.129-1.088 1.787 1.787 0 0 0-1.008-.94 1.656 1.656 0 0 0-.659-.113 1.777 1.777 0 0 0-.676-.923 1.784 1.784 0 0 0-1.343-.303 1.786 1.786 0 0 0-.73.299 1.804 1.804 0 0 0-1.894-.567l2.471-4.172a2.6 2.6 0 0 0 2.16.132l.9-.35c.226-.115.481-.145.721-.092a2.315 2.315 0 0 0-.359 1.238v2.021c0 .688.56 1.247 1.248 1.247a2.29 2.29 0 0 0 2.037-1.245l5.75 3.405a.347.347 0 0 1 .145.43l-.023.037a.346.346 0 0 1-.474.122zm-2.772 5.037l.883.523a.346.346 0 1 1-.355.594l-.803-.476c.102-.23.155-.478.155-.73a.718.718 0 0 0 .12.089zM8.48 26.591l.604-.843a.343.343 0 0 1 .483-.071.343.343 0 0 1 .08.471l-.606.847a.346.346 0 1 1-.56-.404zm3.021-.53c.053-.075.132-.124.28-.144a.345.345 0 0 1 .281.546l-1.28 1.782c-.11.154-.326.191-.447.11l-.034-.029a.347.347 0 0 1-.079-.483zm.463 3.033l1.283-1.789a.35.35 0 0 1 .481-.097.348.348 0 0 1 .147.22c.02.091 0 .183-.07.288l-1.28 1.781c-.106.145-.303.184-.482.081a.349.349 0 0 1-.079-.484zm2.028.855l.427-.596a.347.347 0 0 1 .481-.087.349.349 0 0 1 .078.495l-.424.591c-.112.152-.326.19-.449.108l-.034-.029a.348.348 0 0 1-.079-.482zm9.115-8.608a.726.726 0 0 0-.253.996l1.377 2.326-.159.092-.107.067-6.044-3.578a.726.726 0 0 0-.995.256.71.71 0 0 0-.102.383.895.895 0 0 1-.248.664.83.83 0 0 1-.378.218v-1.793c0-.394.267-.738.65-.836l1.517-.383c.296-.073.492.009.886.176.181.077.39.165.633.248a2.545 2.545 0 0 0 1.725.052l.16.27a.728.728 0 0 0 1.251-.742l-.543-.916a.597.597 0 0 1 .211-.821l.782-.463 3.677 6.209-.786.465a.593.593 0 0 1-.82-.21l-1.436-2.426a.733.733 0 0 0-.998-.254zm5.43 1.922l-3.909-6.6a1.275 1.275 0 0 0-1.742-.446l-.939.557a2.042 2.042 0 0 0-.976 2.117 1.154 1.154 0 0 1-.575-.072 5.502 5.502 0 0 1-.54-.21c-.526-.224-1.069-.456-1.845-.262l-1.078.273c-.277.069-.407.103-.484.124a2.702 2.702 0 0 0-2.613-.257l-.877.339a1.139 1.139 0 0 1-.99-.084l-.089-.052a2.062 2.062 0 0 0-1-1.915l-.942-.557a1.276 1.276 0 0 0-1.74.446l-3.864 6.521a1.275 1.275 0 0 0 .446 1.742l.94.555c.313.188.675.287 1.043.287.203.029.392-.027.581-.082l-.04.057c-.282.39-.395.867-.317 1.341.077.475.335.89.726 1.17a1.87 1.87 0 0 0 1.08.339 1.808 1.808 0 0 0 1.715 1.252h.028a1.801 1.801 0 0 0 2.175 1.192 1.804 1.804 0 0 0 2.21.805c.216-.083.414-.206.583-.363l.914.541a1.79 1.79 0 0 0 1.366.193 1.79 1.79 0 0 0 1.26-1.174 1.8 1.8 0 0 0 2.34-1.277 1.78 1.78 0 0 0 1.071-.249c.395-.236.68-.604.806-1.043a1.79 1.79 0 0 0 1.072-.118 1.803 1.803 0 0 0 .838-2.546l.241-.141a2.068 2.068 0 0 0 1.7-.174l.94-.556a1.273 1.273 0 0 0 .484-1.673z"/></g></g></g></svg>