<svg xmlns="http://www.w3.org/2000/svg" width="55" height="55" viewBox="0 0 55 55"><g><g><g><g><g><path fill="#fff" d="M19.44 8.674a7.678 7.678 0 0 1-.002 10.858l-5.429 5.429-5.429-5.429A7.678 7.678 0 1 1 19.44 8.674zm2.035 12.894a10.49 10.49 0 0 0 3.092-7.465c0-2.799-1.112-5.483-3.091-7.463-4.122-4.123-10.806-4.124-14.93-.002-4.123 4.122-4.124 10.807-.002 14.93l7.465 7.465z"/></g></g><g><g><path fill="#fff" d="M14.01 12.183a1.922 1.922 0 0 1 1.92 1.918 1.92 1.92 0 1 1-1.92-1.92zm4.8 1.917a4.8 4.8 0 1 0-9.6 0 4.8 4.8 0 0 0 9.6 0z"/></g></g><g><g><path fill="#fff" d="M41.517 45.223a4.8 4.8 0 1 1 6.788.001l-3.393 3.393-3.394-3.393zm8.825 2.037a7.678 7.678 0 1 0-10.859 0l5.429 5.429z"/></g></g><g><g><path fill="#fff" d="M37.907 52.684H21.835a9.267 9.267 0 0 1 0-18.531h5.342a2.858 2.858 0 0 0 0-5.715h-5.586v-2.879h5.586a5.736 5.736 0 0 1 5.734 5.74 5.736 5.736 0 0 1-5.734 5.734h-5.342a6.386 6.386 0 0 0 0 12.773h16.071v2.879z"/></g></g></g><g/></g></g></svg>