<svg xmlns="http://www.w3.org/2000/svg" width="34" height="34" viewBox="0 0 34 34"><g><g><g><path fill="#00334c" d="M19.171 27.148l1.291-1.288 4.595 4.599-1.287 1.289zM33.645 16.95a1.55 1.55 0 0 0-1.265-.568l.008.204-.029-.204a1.903 1.903 0 0 0-1.763 1.435l-.518 2.127a6.723 6.723 0 0 1-3.603 4.478.423.423 0 0 1-.329.02.422.422 0 0 1-.247-.217.423.423 0 0 1-.038-.264l.41-2.342a1.503 1.503 0 0 0-.254-1.131 1.505 1.505 0 0 0-.98-.621 1.506 1.506 0 0 0-1.534.675l-2.54 3.968a1.17 1.17 0 0 0-1.33.233l-1.92 1.919a.69.69 0 0 0 0 .974l5.573 5.573a.69.69 0 0 0 .974 0l1.92-1.92c.374-.376.446-.938.201-1.387.56-.322 1.103-.683 1.617-1.073a.69.69 0 0 0-.323-1.23.695.695 0 0 0-.509.134c-.556.42-1.144.804-1.75 1.139l-3.418-3.418 2.663-4.161a.139.139 0 1 1 .253.097l-.41 2.34c-.083.476.024.956.302 1.35.278.397.693.66 1.17.743.377.067.758.01 1.103-.157a8.096 8.096 0 0 0 4.337-5.39l.518-2.127a.492.492 0 0 1 .538-.38c.17.029.157.15.153.195a14.019 14.019 0 0 1-4.07 8.558.68.68 0 0 0-.204.486.686.686 0 0 0 .685.69h.003a.684.684 0 0 0 .485-.2 15.389 15.389 0 0 0 4.47-9.406 1.548 1.548 0 0 0-.349-1.142z"/></g><g><path fill="#00334c" d="M11.521 8.87l.954 1.65-.012.697c-.008.438.222.845.601 1.064l1.457.84a1.197 1.197 0 0 0 1.222-.01l.582-.35 1.922-.005.591.355c.374.225.842.229 1.223.01l1.456-.84c.38-.22.61-.626.602-1.064l-.016-.688.958-1.658.602-.334c.381-.213.617-.617.616-1.053V5.803a1.207 1.207 0 0 0-.617-1.055l-.602-.333-.032-.056a.688.688 0 0 0-.932-.28c-.333.18-.459.598-.262.962l.058.103c.11.19.268.346.46.452l.555.308v1.479l-.556.308c-.19.106-.35.263-.458.45l-1.007 1.742c-.109.19-.164.405-.16.623l.01.635-1.28.74-.544-.327a1.207 1.207 0 0 0-.618-.173h-2.012a1.2 1.2 0 0 0-.616.173l-.543.326-1.282-.74.012-.634a1.206 1.206 0 0 0-.162-.623l-1.005-1.741a1.222 1.222 0 0 0-.459-.452l-.556-.307v-1.48l.556-.308c.191-.105.35-.262.46-.451l1.004-1.741c.11-.19.166-.405.162-.624l-.012-.634 1.282-.74.543.327c.187.112.4.17.617.17h2.012c.216 0 .43-.06.617-.171l.543-.326 1.281.739-.01.637c-.002.185.041.37.121.536a.686.686 0 0 0 .917.326.688.688 0 0 0 .347-.87l.012-.705a1.208 1.208 0 0 0-.602-1.065l-1.454-.84a1.199 1.199 0 0 0-1.224.01l-.58.35-1.924.006-.59-.355a1.197 1.197 0 0 0-1.224-.011l-1.457.84a1.21 1.21 0 0 0-.602 1.065l.018.688-.959 1.658-.602.334c-.38.213-.617.617-.616 1.053v1.682c0 .243.072.475.202.67z"/></g><g><path fill="#00334c" d="M25.086 13.964c0-.553.45-1.004 1.003-1.004.554 0 1.004.45 1.004 1.004 0 .553-.45 1.004-1.004 1.004a1.005 1.005 0 0 1-1.003-1.004zm1.003 2.375a2.382 2.382 0 0 0 2.38-2.38 2.382 2.382 0 0 0-2.38-2.38 2.382 2.382 0 0 0-2.379 2.38 2.384 2.384 0 0 0 2.38 2.38z"/></g><g><path fill="#00334c" d="M23.911 10.96l.673-.391.27.162c.163.098.35.149.54.149h1.396c.19 0 .376-.051.538-.15l.27-.161.675.39-.005.317c-.004.189.044.377.14.54l.697 1.208c.094.164.232.3.4.393l.274.152v.778l-.277.153a1.04 1.04 0 0 0-.398.392l-.698 1.207a1.046 1.046 0 0 0-.139.542l.005.316-.675.39-.27-.161a1.041 1.041 0 0 0-.538-.15h-1.395c-.19 0-.376.052-.539.15l-.27.162-.674-.391.005-.316a1.036 1.036 0 0 0-.14-.541l-.697-1.207a1.053 1.053 0 0 0-.399-.393l-.276-.152v-.778l.275-.152c.166-.091.305-.227.401-.392l.697-1.207a1.04 1.04 0 0 0 .14-.544zm-.86-1.093c-.327.19-.527.544-.52.923l.007.419-.606 1.05-.365.202c-.333.185-.54.536-.54.916v1.166c0 .38.207.73.54.916l.364.203.606 1.049-.007.419c-.006.38.194.734.523.924l1.01.583a1.049 1.049 0 0 0 1.061-.01l.361-.215h1.212l.361.216c.326.195.733.2 1.062.009l1.01-.583c.33-.19.53-.545.522-.924l-.006-.42.606-1.048.366-.203a1.05 1.05 0 0 0 .538-.916v-1.166c0-.38-.206-.731-.539-.916l-.365-.202-.606-1.05.006-.42a1.043 1.043 0 0 0-.523-.922l-1.009-.583a1.049 1.049 0 0 0-1.062.008l-.36.216h-1.214l-.36-.216a1.049 1.049 0 0 0-1.062-.008z"/></g><g><path fill="#00334c" d="M7.5 13.964c0-.553.45-1.004 1.002-1.004.554 0 1.004.45 1.004 1.004 0 .553-.45 1.004-1.004 1.004A1.005 1.005 0 0 1 7.5 13.964zm1.002 2.375a2.382 2.382 0 0 0 2.38-2.38 2.382 2.382 0 0 0-2.38-2.38 2.382 2.382 0 0 0-2.379 2.38 2.384 2.384 0 0 0 2.38 2.38z"/></g><g><path fill="#00334c" d="M6.323 10.96l.674-.39.27.162c.163.098.35.149.54.149h1.391c.19 0 .376-.051.538-.15l.27-.161.674.39-.005.317c-.003.19.046.377.141.542l.697 1.207c.096.165.234.3.4.392l.275.152v.778l-.275.152a1.046 1.046 0 0 0-.399.393l-.697 1.207a1.047 1.047 0 0 0-.14.54l.004.317-.674.39-.27-.161a1.041 1.041 0 0 0-.538-.15H7.804c-.19 0-.376.052-.539.15l-.27.162-.674-.391.005-.315a1.042 1.042 0 0 0-.14-.542l-.697-1.207a1.053 1.053 0 0 0-.399-.393l-.275-.152.001-.778.274-.152c.167-.091.305-.227.401-.392l.698-1.208c.094-.164.143-.351.14-.541zm-2.345 4.498l.366.203.606 1.049-.007.419c-.006.38.194.734.523.924l1.01.583a1.049 1.049 0 0 0 1.061-.01l.362-.215H9.11l.361.216c.326.196.733.199 1.062.009l1.01-.583c.33-.19.53-.544.523-.924l-.007-.42.606-1.048.366-.204c.332-.185.538-.535.538-.915v-1.166c0-.38-.207-.731-.54-.916l-.366-.202-.605-1.05.007-.42a1.047 1.047 0 0 0-.523-.922l-1.01-.583a1.046 1.046 0 0 0-1.062.008l-.36.216H7.895l-.362-.216a1.047 1.047 0 0 0-1.06-.008l-1.01.583c-.33.19-.53.544-.524.923l.007.419-.606 1.05-.366.202a1.048 1.048 0 0 0-.539.916v1.167c0 .38.208.73.542.915z"/></g><g><path fill="#00334c" d="M10.09 23.723l-.41-2.34a.14.14 0 0 1 .114-.16.135.135 0 0 1 .138.06l2.663 4.163-3.418 3.419A14.043 14.043 0 0 1 1.97 17.959c-.01-.101.064-.19.215-.201a.502.502 0 0 1 .475.386l.52 2.124a8.097 8.097 0 0 0 4.335 5.39 1.79 1.79 0 0 0 1.382.085 1.795 1.795 0 0 0 1.037-.916 1.8 1.8 0 0 0 .156-1.104zm4.872 1.02v-.001a1.172 1.172 0 0 0-1.332-.233l-2.54-3.968a1.504 1.504 0 0 0-.95-.662 1.512 1.512 0 0 0-1.816 1.739l.41 2.34a.432.432 0 0 1-.616.462 6.723 6.723 0 0 1-3.603-4.478l-.518-2.128a1.909 1.909 0 0 0-1.787-1.431c-.842-.04-1.585.643-1.617 1.503-.003.067 0 .134.006.203a15.324 15.324 0 0 0 7.613 11.808 1.168 1.168 0 0 0 .203 1.389l1.92 1.919a.689.689 0 0 0 .974 0l2.144-2.145a.687.687 0 0 0 0-.974.691.691 0 0 0-.974 0l-1.657 1.658-1.288-1.284 4.598-4.595 1.29 1.287-1.575 1.575a.68.68 0 0 0-.202.486.69.69 0 0 0 1.175.488l2.061-2.061a.689.689 0 0 0 0-.974z"/></g></g></g></svg>