<svg xmlns="http://www.w3.org/2000/svg" width="35" height="35" viewBox="0 0 35 35"><g><g><g><g><path fill="#00334c" d="M15.198 22.401a.74.74 0 0 0-.029 1.021l.014.014.014.015.029.028h.002c.14.126.317.188.495.188a.737.737 0 0 0 .523-.215.742.742 0 1 0-1.048-1.051z"/></g><g><path fill="#00334c" d="M14.512 8.088a5.708 5.708 0 0 1 5.701-5.702 5.717 5.717 0 0 1 5.702 5.605l-.001.097a5.708 5.708 0 0 1-5.701 5.702 5.708 5.708 0 0 1-5.701-5.702zm5.701 7.184c3.962 0 7.185-3.223 7.185-7.184A7.193 7.193 0 0 0 20.213.903c-3.954.007-7.178 3.23-7.185 7.185 0 3.961 3.224 7.184 7.185 7.184z"/></g><g><path fill="#00334c" d="M18.41 22.296a.742.742 0 0 0 0 1.483h5.263c.711 0 1.38-.276 1.885-.779a2.654 2.654 0 0 0 .767-2.202l3-3.084c1.041-1.069 1.175-1.206 1.191-1.225a1.193 1.193 0 0 1 1.819 1.54l-5.773 6.898a4.367 4.367 0 0 1-3.045 1.229h-8.585c-.863 0-1.678.33-2.297.931l-.479.461-4.929-4.928a6.594 6.594 0 0 1 6.023-3.352h.02c.963 0 1.9.196 2.782.583a.747.747 0 0 0 .298.062h7.32c.655 0 1.19.533 1.191 1.189a1.194 1.194 0 0 1-1.194 1.194zm-6.918 7.461l-2.594 2.558-6.193-6.248L5.25 23.52h.001a.546.546 0 0 1 .692-.068c.037.021.118.101 1.1 1.086.777.778 2.118 2.122 4.448 4.448a.55.55 0 0 1 .001.771zm21.622-14.538a2.66 2.66 0 0 0-3.71.291l-3.727 3.832a2.678 2.678 0 0 0-2.009-.912h-7.167a8.365 8.365 0 0 0-3.224-.644h-.018a8.033 8.033 0 0 0-7.322 4.11 2.026 2.026 0 0 0-1.741.573l-3.065 3.073a.744.744 0 0 0 0 1.045l7.234 7.291a.74.74 0 0 0 1.047.006l3.125-3.079a2.027 2.027 0 0 0 .501-2.04l.629-.606a1.817 1.817 0 0 1 1.27-.514h8.584a5.83 5.83 0 0 0 4.095-1.668c.019-.015.019-.015 1.136-1.351l4.719-5.641a2.679 2.679 0 0 0-.357-3.766z"/></g><g><path fill="#00334c" d="M20.094 9.925a1.082 1.082 0 0 1-.773-.452.732.732 0 0 0-.504-.262.714.714 0 0 0-.54.171.745.745 0 0 0-.092 1.044c.305.379.705.67 1.158.845v.683c0 .409.333.742.741.742a.743.743 0 0 0 .742-.742v-.687a2.03 2.03 0 1 0-.736-3.92h-.001a.55.55 0 0 1-.011-1.095.938.938 0 0 1 .636.31c.14.135.322.209.515.209h.012a.745.745 0 0 0 .731-.754.739.739 0 0 0-.226-.52 2.586 2.586 0 0 0-.92-.593v-.683a.743.743 0 0 0-1.483 0v.689a2.033 2.033 0 0 0-1.175 2.565 2.032 2.032 0 0 0 1.914 1.355h.002a.547.547 0 0 1 .01 1.095z"/></g></g><g/></g></g></svg>