<svg xmlns="http://www.w3.org/2000/svg" width="55" height="55" viewBox="0 0 55 55"><g><g><g><g/></g><g><g><g/></g><g><g><path fill="#fff" d="M34.48 48.203a1.052 1.052 0 1 1 0 2.105 1.052 1.052 0 0 1 0-2.105zm7.876-11.369l-.003 11.199h-4.609a3.45 3.45 0 0 0-1.49-1.782 3.476 3.476 0 0 0-5.034 1.782h-1.577V36.834zm4.246 7.576h3.325v3.626h-.819a3.497 3.497 0 0 0-3.267-2.273c-.357.002-.711.06-1.049.169v-6.069h.588v3.326c0 .673.548 1.221 1.222 1.221zm-1.808 4.848a1.053 1.053 0 0 1 2.104-.002 1.054 1.054 0 0 1-1.051 1.049h-.096a1.052 1.052 0 0 1-.957-1.047zm3.032-7.284V39.87h.296l1.052 2.104zm4.422.676l-2.276-4.551a1.216 1.216 0 0 0-1.093-.675h-4.081v-1.81c0-.674-.548-1.222-1.222-1.222H28.419c-.673 0-1.221.548-1.221 1.222v13.641c0 .674.548 1.222 1.221 1.222h2.799a3.49 3.49 0 0 0 4.127 2.158 3.48 3.48 0 0 0 2.397-2.158h4.84a3.489 3.489 0 0 0 4.127 2.158 3.48 3.48 0 0 0 2.397-2.158h2.041c.674 0 1.222-.548 1.222-1.222v-6.053a1.212 1.212 0 0 0-.121-.552z"/></g><g><path fill="#fff" d="M32.229 17.708a1.314 1.314 0 0 0-.754-.237h-4.901c-.52 0-.992.307-1.203.783l-.378.852h-.644a9.123 9.123 0 0 1-6.433-2.678l-2.861-2.864h23.218a7.893 7.893 0 0 1 3.077.634h-4.645v2.634h8.1l1.592 1.592a.378.378 0 0 1 .101.375l-.024.061c-.06.149-.212.22-.374.245H32.752a1.32 1.32 0 0 0-.523-1.397zm-3.284 2.397l-3.703 5.293-.141-.047 2.329-5.246zm-1.333-9.173l-.975-3.9 2.473 3.9zm-10.969.002h-3.449V5.398h1.789zm29.463 10.804a3.039 3.039 0 0 0 3.035-3.028 3.056 3.056 0 0 0-.891-2.153l-2.53-2.532a10.512 10.512 0 0 0-7.445-3.091h-6.06l-3.698-5.917a1.31 1.31 0 0 0-1.117-.619h-2.453c-.351 0-.68.136-.929.384a1.305 1.305 0 0 0-.348 1.252l1.225 4.9h-5.502l-2.169-7.232a1.324 1.324 0 0 0-1.26-.938H11.88c-.375.013-.683.133-.934.38-.25.248-.389.578-.391.937v8.17l.008.5h.095c.064.158.159.305.283.432l5.105 5.105a11.773 11.773 0 0 0 7.777 3.435l-1.723 3.88a1.318 1.318 0 0 0 .668 1.737l2.568.864a1.328 1.328 0 0 0 1.496-.495l4.183-5.971z"/></g><g><path fill="#fff" d="M20.253 41.69l-2.722 7.622a4.76 4.76 0 0 0-.754.622.948.948 0 0 1-.631.366.945.945 0 0 1-.706-.188 1.154 1.154 0 0 1-.211-.217 3.716 3.716 0 0 0-1.275-.87v-9.434zm-2.273-3.333l-4.86-1.621a1.232 1.232 0 0 0-.771.003l-4.86 1.62.964-5.301h8.564zm-5.54-7.739v-.587h.588v.587zm-.926 8.972v9.44a3.814 3.814 0 0 0-1.295.902.95.95 0 0 1-.635.367.948.948 0 0 1-.71-.191 1.286 1.286 0 0 1-.219-.226 4.899 4.899 0 0 0-.718-.576L5.216 41.69zm10.302 10.336l-.023-.028a3.505 3.505 0 0 0-1.536-.959l2.716-7.604a1.23 1.23 0 0 0-.767-1.567l-1.581-.528-1.384-7.619c-.105-.578-.608-1-1.198-1.003h-2.572V28.81c0-.673-.548-1.221-1.221-1.221h-3.03c-.674 0-1.221.548-1.221 1.221v1.808H7.431a1.222 1.222 0 0 0-1.195 1.003l-1.388 7.618-1.587.529a1.23 1.23 0 0 0-.763 1.569l2.715 7.603a3.564 3.564 0 0 0-1.556.986c-.189.237-.47.376-.774.381l-.455.008v2.437l.466-.003a3.431 3.431 0 0 0 2.515-1.133 1 1 0 0 1 .769-.381c.064-.02.17.013.253.041l.019.009c.191.094.362.219.503.364a3.463 3.463 0 0 0 2.505 1.097 3.432 3.432 0 0 0 2.52-1.14.958.958 0 0 1 1.543.03 3.413 3.413 0 0 0 2.498 1.11 3.446 3.446 0 0 0 2.494-1.088c.125-.129.266-.238.422-.326l.076-.002.068-.067a.752.752 0 0 1 .212-.032c.302.005.583.144.792.405a3.412 3.412 0 0 0 2.493 1.11l.466.003v-2.437l-.456-.008a1 1 0 0 1-.77-.378z"/></g></g></g></g></g></svg>