<svg xmlns="http://www.w3.org/2000/svg" width="55" height="55" viewBox="0 0 55 55"><g><g><g><g/></g><g><g><path fill="#fff" d="M47.194 41.447a4.01 4.01 0 0 1-4.005 4.004 4.008 4.008 0 0 1-4.004-4.004 4.01 4.01 0 0 1 4.004-4.005 4.01 4.01 0 0 1 4.005 4.005zm-9.061 4.004H23.838a6.48 6.48 0 0 0 1.277-2.778h11.741a6.48 6.48 0 0 0 1.277 2.778zm-15.344-4.004a4.008 4.008 0 0 1-4.004 4.004 4.009 4.009 0 0 1-4.005-4.004 4.01 4.01 0 0 1 4.005-4.005 4.01 4.01 0 0 1 4.004 4.005zm28.762-10.823l-12.367.011v-7.138h5.24zm2.194-1.256L42.823 18.431a2.962 2.962 0 0 0-2.09-.87h-15.33v2.45h4.358v13.072h2.45V20.011h8.509c.137 0 .27.055.367.151l.885.885h-3.141a2.1 2.1 0 0 0-2.097 2.097v7.844c0 1.156.941 2.096 2.097 2.096H51.55v6.617a.519.519 0 0 1-.517.518h-1.515a6.405 6.405 0 0 0-2.467-3.941 6.4 6.4 0 0 0-4.781-1.219 6.486 6.486 0 0 0-5.412 5.16h-11.74c-.645-3.355-3.836-5.648-7.248-5.16a6.484 6.484 0 0 0-5.411 5.16H10.94a.52.52 0 0 1-.518-.518v-8.195H7.969v8.198a2.97 2.97 0 0 0 2.968 2.967h1.513a6.47 6.47 0 0 0 1.277 2.778H1v2.45h42.189c3.076-.008 5.742-2.235 6.325-5.23h1.519A2.97 2.97 0 0 0 54 39.702v-9.586c0-.27-.092-.535-.255-.748z"/></g><g><path fill="#fff" d="M12.684 9.552c5.092 0 9.234 4.142 9.234 9.234s-4.142 9.234-9.234 9.234-9.235-4.142-9.235-9.234 4.143-9.234 9.235-9.234zm0 20.917c6.442 0 11.684-5.241 11.684-11.684 0-6.442-5.242-11.684-11.684-11.684C6.242 7.101 1 12.343 1 18.786c0 6.442 5.242 11.683 11.684 11.683z"/></g><g><path fill="#fff" d="M10.63 19.77l.25-.25a2.532 2.532 0 0 1-.747-1.803c0-.681.266-1.321.748-1.803a2.532 2.532 0 0 1 1.802-.746h.001c.681 0 1.321.265 1.802.747a2.553 2.553 0 0 1 0 3.606l-1.803 1.802-1.802-1.802zm2.053 5.015l3.534-3.533a5.003 5.003 0 0 0 0-7.067 5.004 5.004 0 0 0-7.066 0 5.003 5.003 0 0 0-.001 7.067z"/></g></g></g></g></svg>