<svg xmlns="http://www.w3.org/2000/svg" width="35" height="35" viewBox="0 0 35 35"><g><g><g><g><path fill="#00334c" d="M6.458 7.041a1.88 1.88 0 0 1 1.879-1.877c1.034 0 1.878.842 1.879 1.877A1.881 1.881 0 0 1 8.337 8.92a1.881 1.881 0 0 1-1.879-1.879zm1.879 3.21c1.77 0 3.211-1.44 3.211-3.21A3.215 3.215 0 0 0 8.337 3.83a3.214 3.214 0 0 0-3.211 3.211c0 1.77 1.44 3.21 3.211 3.21z"/></g><g><path fill="#00334c" d="M3.404 13.151c0-.755.615-1.37 1.369-1.37h13.068a1.371 1.371 0 0 1-1.362 1.213h-5.598a.157.157 0 0 0-.157.157v6.979a.16.16 0 0 0 .107.149l2.946.982v5.979h-1.212v-5.281a.158.158 0 0 0-.102-.147l-5.09-1.908a.149.149 0 0 0-.144.018.158.158 0 0 0-.068.129v9.229H5.947V13.659a.157.157 0 0 0-.157-.157H4.773a.158.158 0 0 0-.157.157v5.442h-.86a.353.353 0 0 1-.352-.352zm6.859 14.139a.15.15 0 0 0-.047.111v1.879H8.494v-7.533l2.739 1.027v4.471l-.86-.001a.155.155 0 0 0-.11.046zm10.288-3.099a.157.157 0 0 0-.157.157v2.896H15.11v-6.827a.157.157 0 0 0-.107-.148l-2.946-.983v-4.959h4.422a2.712 2.712 0 0 0 2.704-2.701v-1.018a.157.157 0 0 0-.158-.156H4.773a2.71 2.71 0 0 0-2.701 2.701v5.597c0 .929.756 1.684 1.684 1.684h.86v8.846H2.229a.158.158 0 0 0-.157.157V33c0 .086.071.157.157.157h1.018A.157.157 0 0 0 3.404 33v-2.389h6.811V33c0 .086.07.157.157.157h1.018a.157.157 0 0 0 .157-.157v-4.424h8.846V33c0 .086.07.157.157.157h1.018a.158.158 0 0 0 .158-.157v-7.477h9.865V33c0 .086.07.157.157.157h1.023a.158.158 0 0 0 .157-.157v-8.652a.157.157 0 0 0-.157-.157z"/></g><g><path fill="#00334c" d="M27.52 9.079v12.567h-1.722V9.079a.157.157 0 0 0-.157-.157h-1.862l2.88-4.681 2.88 4.681h-1.862a.157.157 0 0 0-.157.157zm-3.054 1.174V22.82c0 .086.07.157.157.157h4.071a.158.158 0 0 0 .158-.157V10.253h2.789a.156.156 0 0 0 .133-.239l-4.981-8.096c-.057-.093-.211-.093-.268 0l-4.983 8.096a.157.157 0 1 0 .134.239z"/></g></g><g/></g></g></svg>