<svg xmlns="http://www.w3.org/2000/svg" width="30" height="34" viewBox="0 0 30 34"><g><g><g><path fill="#00334c" d="M17.06 32.128l.896-2.697.72 1.082zm1.291-3.884l1.151-3.454.386 2.302zm2.755-2.815L24 26.613a7.21 7.21 0 0 1 4.431 5.915h-3.807v-2.99a.206.206 0 0 0-.206-.205h-1.065a.206.206 0 0 0-.206.206v2.99h-4.398l1.71-1.71c.07-.07.08-.178.026-.26l-.923-1.38 1.828-1.37a.209.209 0 0 0 .081-.2zm-4.025-2.377l-1.72 1.72-1.72-1.721c.123-.238.213-.494.266-.756a10.245 10.245 0 0 0 1.245.503l.146.05a.2.2 0 0 0 .132 0l.168-.056c.415-.14.823-.305 1.216-.496.054.262.143.518.267.756zm-4.289-6.078c.79 0 1.527-.404 1.953-1.064h1.247a2.329 2.329 0 0 0 1.953 1.064h2.21a8.611 8.611 0 0 1-4.787 4.335 8.611 8.611 0 0 1-4.787-4.335zm-3.073-4.79h11.298v1.044a8.683 8.683 0 0 1-.098 1.28l-.003.016a8.615 8.615 0 0 1-.139.702.843.843 0 0 1-.617.268h-2.21a.852.852 0 0 1-.766-.474l-.238-.477a.206.206 0 0 0-.184-.114h-2.785a.206.206 0 0 0-.184.114l-.238.477a.852.852 0 0 1-.766.474h-2.213a.843.843 0 0 1-.617-.268 8.44 8.44 0 0 1-.24-2.001zm5.795 14.529l2.575-2.576.062.038-2.785 8.35-2.782-8.35.062-.038 2.576 2.576c.081.08.21.08.292 0zm-7.27-13.778v.292c.001.618.06 1.239.182 1.886l.05.246.008.036a1.395 1.395 0 0 1-.893-1.29c.002-.481.255-.921.652-1.17zm14.826 1.627a1.378 1.378 0 0 1-.819.839l.011-.051a10.156 10.156 0 0 0 .232-2.124v-.293c.538.334.792 1.007.576 1.629zM9.872 10.704l1.656-.994.993.994zm5.496-1l1.333 1h-2.666zm2.847 1l.993-.994 1.656.994zm4.178-.8l-3.276-1.966a.207.207 0 0 0-.252.03l-1.437 1.438-1.936-1.45a.209.209 0 0 0-.247 0l-1.936 1.45-1.44-1.437a.207.207 0 0 0-.253-.031L8.343 9.905a.206.206 0 0 0-.1.177v1.257a2.829 2.829 0 0 0-1.159.622 3.481 3.481 0 0 1-.579-.84l-.043-.075a2.873 2.873 0 0 1-.32-2.49A3.023 3.023 0 0 1 7.93 6.705l.31-.121a.205.205 0 0 0 .13-.178l.023-.334a2.95 2.95 0 0 1 1.263-2.204 3.199 3.199 0 0 1 2.592-.484l.316.076a.202.202 0 0 0 .204-.066l.21-.243a3.186 3.186 0 0 1 4.772-.002l.212.245c.051.059.13.085.204.066l.317-.076a3.201 3.201 0 0 1 2.592.485 2.947 2.947 0 0 1 1.264 2.205l.024.335a.207.207 0 0 0 .13.178l.312.123c.843.32 1.495.993 1.787 1.846.281.84.166 1.747-.325 2.502l-.04.073a3.4 3.4 0 0 1-.576.829 2.832 2.832 0 0 0-1.158-.623v-1.255a.206.206 0 0 0-.1-.177zM10.845 27.089l.386-2.302 1.151 3.454zm-1.504.723l1.83 1.37-.924 1.38a.206.206 0 0 0 .026.26l1.71 1.71H7.591v-2.99a.206.206 0 0 0-.206-.206H6.32a.206.206 0 0 0-.206.206v2.99H2.305a7.209 7.209 0 0 1 4.43-5.917l.02-.01 2.87-1.173-.364 2.18a.206.206 0 0 0 .08.2zm2.718 2.702l.72-1.082.896 2.697zm12.518-5.258l-.017-.008-5.46-2.235a1.376 1.376 0 0 1-.865-1.286v-.275a10.014 10.014 0 0 0 3.528-4.477 2.875 2.875 0 0 0 2.86-2.872 2.823 2.823 0 0 0-.148-.885l.133-.128a4.8 4.8 0 0 0 .927-1.273 4.337 4.337 0 0 0 .458-3.731 4.508 4.508 0 0 0-2.237-2.57 4.455 4.455 0 0 0-1.83-2.855 4.643 4.643 0 0 0-3.36-.797c-1.785-1.682-4.61-1.682-6.397 0a4.645 4.645 0 0 0-3.358.796 4.457 4.457 0 0 0-1.83 2.856 4.51 4.51 0 0 0-2.238 2.57 4.326 4.326 0 0 0 .447 3.713c.235.47.54.896.932 1.289l.145.107a2.836 2.836 0 0 0 .073 2.037 2.84 2.84 0 0 0 1.56 1.535c.341.138.7.209 1.068.209a10.006 10.006 0 0 0 3.533 4.477v.276a1.38 1.38 0 0 1-.864 1.286L6.18 25.246a8.6 8.6 0 0 0-5.388 8.022v.532c0 .114.093.206.206.206H29.74a.206.206 0 0 0 .206-.206v-.532a8.599 8.599 0 0 0-5.368-8.013z"/></g><g><path fill="#00334c" d="M15.317 19.682h.051a2.338 2.338 0 0 0 2.335-2.388.206.206 0 0 0-.206-.2h-1.06a.206.206 0 0 0-.207.206.86.86 0 0 1-1.717 0 .207.207 0 0 0-.207-.206H13.24a.206.206 0 0 0-.206.202 2.338 2.338 0 0 0 2.284 2.386z"/></g></g></g></svg>