<svg xmlns="http://www.w3.org/2000/svg" width="55" height="55" viewBox="0 0 55 55"><g><g><g><g><path fill="#fff" d="M52.165 9.121v25.947H2.835V9.121c0-.638.519-1.157 1.157-1.157h47.016c.638 0 1.157.519 1.157 1.157zm0 27.907v2.013a1.16 1.16 0 0 1-1.157 1.157H3.992a1.16 1.16 0 0 1-1.157-1.157v-2.013zm-30.056 7.444l.926-2.315h8.93l.927 2.315zm-5.597 2.564v-.604h21.976v.604zM51.008 6.004H3.992A3.125 3.125 0 0 0 .875 9.121v29.92a3.125 3.125 0 0 0 3.117 3.116h16.932l-.927 2.315h-4.465a.98.98 0 0 0-.979.98v1.584H9.549a.981.981 0 0 0 0 1.96h35.902a.981.981 0 0 0 0-1.96h-5.004v-1.584a.98.98 0 0 0-.979-.98h-4.465l-.927-2.315h16.932a3.125 3.125 0 0 0 3.117-3.116V9.121a3.125 3.125 0 0 0-3.117-3.117z"/></g><g><path fill="#fff" d="M30.179 17.85a3.55 3.55 0 0 0-.24-4.893 3.547 3.547 0 0 0-5.01.132 3.546 3.546 0 0 0-.106 4.764 5.268 5.268 0 0 0-2.215 2.606 5.81 5.81 0 0 1-.89-4.164 5.817 5.817 0 0 1 2.359-3.81 5.814 5.814 0 0 1 3.418-1.102h.011c1.561 0 3.029.608 4.135 1.711a5.818 5.818 0 0 1 1.717 4.138 5.808 5.808 0 0 1-.964 3.225 5.266 5.266 0 0 0-2.215-2.607zm-2.469 1.234a3.302 3.302 0 0 1 3.072 3.007 5.861 5.861 0 0 1-6.564 0c.151-1.777 1.704-3.112 3.492-3.007zm-.21-5.136c.874 0 1.585.711 1.585 1.584 0 .874-.711 1.585-1.585 1.585a1.59 1.59 0 0 1-1.585-1.585c0-.873.711-1.584 1.585-1.584zm0-4.525c-4.312 0-7.818 3.508-7.818 7.819.005 4.306 3.511 7.814 7.818 7.819 4.312 0 7.818-3.508 7.818-7.819S31.812 9.423 27.5 9.423z"/></g><g><path fill="#fff" d="M32.629 26.52H22.371a.98.98 0 0 0 0 1.96h10.258a.98.98 0 0 0 0-1.96z"/></g><g><path fill="#fff" d="M25.061 32.504v-.605h4.878v.605zm5.858-2.565h-6.838a.98.98 0 0 0-.98.98v2.565c0 .54.439.98.98.98h6.838a.98.98 0 0 0 .98-.98v-2.565a.98.98 0 0 0-.98-.98z"/></g></g><g/></g></g></svg>