<svg xmlns="http://www.w3.org/2000/svg" width="62" height="67" viewBox="0 0 62 67"><defs><radialGradient id="m9kfa" cx="31" cy="62.5" r="4.5" gradientUnits="userSpaceOnUse"><stop offset="0" stop-color="#92a7b2" stop-opacity=".84"/><stop offset="1" stop-color="#a5bac4" stop-opacity="0"/></radialGradient><linearGradient id="m9kfb" x1="27.85" x2="-3.13" y1="5.31" y2="33.83" gradientUnits="userSpaceOnUse"><stop offset="0" stop-color="#ff3c45"/><stop offset="1" stop-color="#f96873"/></linearGradient><linearGradient id="m9kfc" x1="44.87" x2="26.59" y1="18.95" y2="35.79" gradientUnits="userSpaceOnUse"><stop offset="0" stop-color="#ff3c45"/><stop offset="1" stop-color="#f96873"/></linearGradient></defs><g><g><g><path fill="url(#m9kfa)" d="M0 62.5C0 60.015 13.88 58 31 58c17.12 0 31 2.015 31 4.5 0 2.486-13.88 4.5-31 4.5-17.12 0-31-2.014-31-4.5z"/></g><g><g><g><path fill="url(#m9kfb)" d="M22 17.384l8.965-10.843a.835.835 0 0 0-.42-1.338l-14.18-3.939a.683.683 0 0 0-.85.799l.404 1.897c.044.208-.091.38-.277.482-4.57 2.498-6.71 6.8-7.286 8.746-2.988 10.085.797 16.684 2.61 19.426a2.188 2.188 0 0 0 1.96.976l.023-.001a1.64 1.64 0 0 0 1.408-.99l.056-.13a2.66 2.66 0 0 0 .143-1.678c-2.41-9.877 2.253-15.402 4.15-17.173a.627.627 0 0 1 1.025.283l.953 3.215c.103.35.415.545.732.545a.749.749 0 0 0 .583-.277z"/></g><g><g><path fill="url(#m9kfc)" d="M47.602 25.961c0-7.162-5.128-13.264-11.687-15.163l-4.41 15.204 7.774 13.836c4.949-2.655 8.323-7.879 8.323-13.877z"/></g></g><g><path fill="#00334c" d="M35.133 12.645l-4.495 11.27a2.354 2.354 0 0 0 .967 4.446l2.825 3.804c.258.26.684-.026.543-.363l-1.37-4.393a2.343 2.343 0 0 0-.187-3.018c.67-3.427 2.277-11.529 2.277-11.529.082-.343-.39-.526-.56-.217z"/></g><g><path fill="#00334c" d="M31.85 3.408c-.496 0-.986.021-1.473.053l.616.17a2.452 2.452 0 0 1 1.693 1.629 2.434 2.434 0 0 1-.452 2.3l-.599.72c.072-.001.142-.005.214-.005 9.68 0 17.578 7.73 17.782 17.31h-4.633v.811h4.633c-.228 9.458-7.956 17.1-17.483 17.257v-4.51h-.814v4.505c-6.925-.198-12.866-4.353-15.623-10.265a3.25 3.25 0 0 1-2.66 1.68l-.024.002a3.831 3.831 0 0 1-2.136-.502c3.406 8.185 11.513 13.96 20.958 13.96 12.506 0 22.68-10.119 22.68-22.557 0-12.438-10.174-22.558-22.68-22.558z"/></g></g><g/></g></g></g></svg>