<svg xmlns="http://www.w3.org/2000/svg" width="36" height="36" viewBox="0 0 36 36"><g><g><g/><g><g><g><g><path fill="#f83e46" d="M26.486 8.172H5.482c-.917 0-1.642.77-1.642 1.68v12.917a1.627 1.627 0 0 0 1.642 1.606h.85V13.84c0-1.723 1.408-3.102 3.13-3.102h18.652v-.887c0-.909-.712-1.679-1.628-1.679z"/></g></g></g><g><g><g><path fill="#f83e46" d="M28.773 23.348a1.175 1.175 0 0 0-1.657.147.734.734 0 0 1-1.144 0 1.177 1.177 0 0 0-.908-.433c-.66 0-1.188.528-1.18 1.188 0 .652.535 1.18 1.187 1.18.352.008.69-.154.91-.425a.728.728 0 0 1 .564-.264.709.709 0 0 1 .564.257c.051.058.095.11.154.154a1.175 1.175 0 1 0 1.51-1.804z"/></g></g></g><g><g><g><path fill="#f83e46" d="M30.474 12.205H9.463a1.647 1.647 0 0 0-1.665 1.635v1.077h24.348V13.84c0-.917-.755-1.635-1.672-1.635z"/></g></g></g><g><g><g><path fill="#f83e46" d="M8 18v-1h24v1z"/></g></g></g><g><g><g><path fill="#f83e46" d="M30.225 25.724a2.653 2.653 0 0 1-3.68.71c-.44.301-.953.455-1.481.455a2.652 2.652 0 0 1-2.647-2.654 2.645 2.645 0 0 1 4.128-2.192 2.643 2.643 0 0 1 2.969 0 2.653 2.653 0 0 1 .711 3.68zM7.798 19.756v6.972c0 .924.74 1.672 1.665 1.679h21.004a1.687 1.687 0 0 0 1.671-1.679v-6.972z"/></g></g></g></g></g></g></svg>