<svg xmlns="http://www.w3.org/2000/svg" width="38" height="107" viewBox="0 0 38 107"><defs><clipPath id="d0hia"><path fill="#fff" d="M12 7a7 7 0 1 1 14 0 7 7 0 0 1-14 0z"/></clipPath><radialGradient id="d0hic" cx="19" cy="104.5" r="2.5" gradientUnits="userSpaceOnUse"><stop offset="0" stop-color="#92a7b2" stop-opacity=".84"/><stop offset="1" stop-color="#a5bac4" stop-opacity="0"/></radialGradient><linearGradient id="d0hid" x1="17.3" x2="-1.71" y1="70.3" y2="87.81" gradientUnits="userSpaceOnUse"><stop offset="0" stop-color="#ff3c45"/><stop offset="1" stop-color="#f96873"/></linearGradient><linearGradient id="d0hie" x1="27.75" x2="16.53" y1="78.67" y2="89.01" gradientUnits="userSpaceOnUse"><stop offset="0" stop-color="#ff3c45"/><stop offset="1" stop-color="#f96873"/></linearGradient><clipPath id="d0hib"><path d="M17 55V26h3v29z"/></clipPath></defs><g><g><g><path fill="#f83e46" d="M15 7a4 4 0 1 1 8 0 4 4 0 0 1-8 0z"/></g><g><path fill="none" stroke="#f83e46" stroke-miterlimit="20" stroke-width="2" d="M12 7a7 7 0 1 1 14 0 7 7 0 0 1-14 0z" clip-path="url(&quot;#d0hia&quot;)"/></g></g><g><g/><g clip-path="url(#d0hib)"><g><path fill="#00334c" d="M17 27.5a1.5 1.5 0 1 1 3 0 1.5 1.5 0 0 1-3 0z"/></g></g><g clip-path="url(#d0hib)"><g><path fill="#00334c" d="M17 39.5a1.5 1.5 0 1 1 3 0 1.5 1.5 0 0 1-3 0z"/></g></g><g clip-path="url(#d0hib)"><g><path fill="#00334c" d="M17 51.5a1.5 1.5 0 1 1 3 0 1.5 1.5 0 0 1-3 0z"/></g></g></g><g><g><path fill="url(#d0hic)" d="M0 104.5c0-1.38 8.507-2.5 19-2.5s19 1.12 19 2.5-8.507 2.5-19 2.5-19-1.12-19-2.5z"/></g><g><g><g><path fill="url(#d0hid)" d="M13.705 77.71l5.503-6.657a.513.513 0 0 0-.258-.82l-8.703-2.418a.42.42 0 0 0-.522.49l.247 1.164c.027.128-.056.234-.17.296-2.805 1.533-4.118 4.174-4.472 5.369-1.835 6.19.489 10.241 1.602 11.925a1.343 1.343 0 0 0 1.204.599h.013c.38-.024.715-.26.865-.609l.034-.08c.139-.324.171-.686.087-1.03-1.479-6.063 1.383-9.454 2.549-10.54a.385.385 0 0 1 .63.174l.583 1.972a.465.465 0 0 0 .808.165z"/></g><g><g><path fill="url(#d0hie)" d="M29.42 82.975c0-4.397-3.147-8.143-7.173-9.308L19.539 83l4.773 8.493c3.038-1.63 5.109-4.836 5.109-8.518z"/></g></g><g><path fill="#00334c" d="M21.767 74.8l-2.76 6.918a1.445 1.445 0 0 0 .594 2.73l1.735 2.335c.158.16.42-.016.333-.223l-.842-2.697a1.438 1.438 0 0 0-.114-1.852c.411-2.104 1.398-7.077 1.398-7.077.05-.21-.24-.323-.344-.133z"/></g><g><path fill="#00334c" d="M19.751 69.13c-.304 0-.605.014-.904.033l.379.105a1.505 1.505 0 0 1 .761 2.41l-.367.443c.044 0 .087-.003.131-.003 5.942 0 10.79 4.745 10.916 10.626h-2.844v.498h2.844c-.14 5.806-4.884 10.497-10.732 10.593v-2.768h-.5v2.765a10.932 10.932 0 0 1-9.59-6.301c-.33.598-.938.99-1.634 1.031l-.014.001a2.352 2.352 0 0 1-1.311-.308c2.09 5.024 7.067 8.57 12.865 8.57 7.677 0 13.922-6.212 13.922-13.847 0-7.636-6.245-13.847-13.922-13.847z"/></g></g><g/></g></g></g></svg>