<svg xmlns="http://www.w3.org/2000/svg" width="38" height="107" viewBox="0 0 38 107"><defs><clipPath id="qxbya"><path fill="#fff" d="M12.762 7a7 7 0 1 1 14 0 7 7 0 0 1-14 0z"/></clipPath><radialGradient id="qxbyc" cx="19.38" cy="103.63" r="2.7" gradientUnits="userSpaceOnUse"><stop offset="0" stop-color="#09141a" stop-opacity=".84"/><stop offset="1" stop-color="#12242c" stop-opacity="0"/></radialGradient><clipPath id="qxbyb"><path d="M17.762 55V26h3v29z"/></clipPath></defs><g><g><g><path fill="#f83e46" d="M15.762 7a4 4 0 1 1 8 0 4 4 0 0 1-8 0z"/></g><g><path fill="none" stroke="#f83e46" stroke-miterlimit="20" stroke-width="2" d="M12.762 7a7 7 0 1 1 14 0 7 7 0 0 1-14 0z" clip-path="url(&quot;#qxbya&quot;)"/></g></g><g><g/><g clip-path="url(#qxbyb)"><g><path fill="#fff" d="M17.761 27.5a1.5 1.5 0 1 1 3 0 1.5 1.5 0 0 1-3 0z"/></g></g><g clip-path="url(#qxbyb)"><g><path fill="#fff" d="M17.761 39.5a1.5 1.5 0 1 1 3 0 1.5 1.5 0 0 1-3 0z"/></g></g><g clip-path="url(#qxbyb)"><g><path fill="#fff" d="M17.761 51.5a1.5 1.5 0 1 1 3 0 1.5 1.5 0 0 1-3 0z"/></g></g></g><g><g><g><path fill="#f83e46" d="M13.096 77.063l6.143-7.43a.573.573 0 0 0-.288-.917l-9.715-2.698a.468.468 0 0 0-.582.547l.275 1.3c.03.142-.062.26-.19.33-3.13 1.711-4.596 4.659-4.992 5.992-2.047 6.91.546 11.432 1.79 13.311a1.5 1.5 0 0 0 1.342.669l.016-.001c.424-.026.797-.289.964-.679l.038-.089c.156-.362.192-.766.099-1.149-1.652-6.768 1.543-10.553 2.844-11.766a.43.43 0 0 1 .702.194l.652 2.202a.519.519 0 0 0 .902.184z"/></g><g><g><path fill="#f83e46" d="M30.62 83.017c0-4.907-3.514-9.088-8.007-10.39L19.59 83.046l5.327 9.48c3.391-1.819 5.703-5.398 5.703-9.508z"/></g></g><g><path fill="#fff" d="M22.085 73.876l-3.08 7.722a1.613 1.613 0 0 0 .662 3.046l1.936 2.607c.177.178.469-.018.372-.249l-.939-3.01a1.605 1.605 0 0 0-.127-2.068c.458-2.348 1.56-7.899 1.56-7.899.056-.235-.267-.36-.384-.149z"/></g><g><path fill="#fff" d="M19.836 67.487c-.34 0-.675.014-1.008.036l.422.117c.553.154.987.573 1.16 1.121.172.549.056 1.14-.31 1.583l-.41.497c.048-.001.097-.004.146-.004 6.629 0 12.037 5.322 12.177 11.918H28.84v.558h3.172c-.156 6.512-5.448 11.773-11.971 11.881V92.09h-.558v3.101c-4.742-.136-8.81-2.996-10.698-7.067a2.223 2.223 0 0 1-1.822 1.158h-.016a2.614 2.614 0 0 1-1.462-.345c2.332 5.635 7.883 9.611 14.351 9.611 8.563 0 15.53-6.967 15.53-15.53 0-8.563-6.967-15.53-15.53-15.53z"/></g></g><g><path fill="url(#qxbyc)" d="M.762 103.628c0-1.493 8.336-2.703 18.619-2.703S38 102.135 38 103.628c0 1.493-8.336 2.703-18.62 2.703-10.282 0-18.618-1.21-18.618-2.703z"/></g></g></g></svg>