<svg xmlns="http://www.w3.org/2000/svg" width="48" height="48" viewBox="0 0 48 48"><g><g><g><g transform="rotate(34 24.5 18.5)"><g transform="rotate(70 24.5 18.5)"><path fill="#00334c" d="M26.689 17.617l5.367-6.492a.5.5 0 0 0-.252-.8l-8.488-2.358a.409.409 0 0 0-.509.478l.242 1.136c.026.124-.055.227-.166.288-2.735 1.495-4.016 4.07-4.362 5.236-1.789 6.037.477 9.987 1.563 11.629a1.31 1.31 0 0 0 1.174.584h.013a.982.982 0 0 0 .843-.594l.033-.077c.136-.317.167-.67.086-1.004-1.443-5.913 1.348-9.22 2.485-10.28a.375.375 0 0 1 .614.17l.57 1.923a.453.453 0 0 0 .787.16z"/></g></g><g transform="rotate(-146 23.5 30)"><g transform="rotate(70 23.5 30)"><path fill="#f83e46" d="M26.352 33.221l5.367-6.492a.5.5 0 0 0-.252-.8L22.98 23.57a.409.409 0 0 0-.509.478l.242 1.136c.026.124-.055.227-.166.288-2.736 1.495-4.017 4.07-4.362 5.236-1.789 6.037.477 9.988 1.563 11.63a1.31 1.31 0 0 0 1.173.584l.014-.001a.982.982 0 0 0 .843-.593l.033-.078c.135-.316.167-.67.085-1.004-1.442-5.913 1.35-9.22 2.485-10.28a.375.375 0 0 1 .614.17l.57 1.923a.453.453 0 0 0 .788.161z"/></g></g></g><g/></g></g></svg>