<svg xmlns="http://www.w3.org/2000/svg" width="36" height="36" viewBox="0 0 36 36"><g><g><g/><g><g><g><g><path fill="#f83e46" d="M18 27.06c-4.996 0-9.06-4.064-9.06-9.06v-.024-.007-.01c.023-4.936 4.011-8.951 8.937-9.017l.03-.002.02.001H18c4.996 0 9.06 4.063 9.06 9.059 0 4.996-4.064 9.06-9.06 9.06zm7.97-17.03A11.199 11.199 0 0 0 18 6.727a11.199 11.199 0 0 0-7.97 3.301A11.199 11.199 0 0 0 6.727 18c0 3.011 1.172 5.842 3.301 7.97A11.199 11.199 0 0 0 18 29.273c3.011 0 5.842-1.172 7.97-3.301A11.199 11.199 0 0 0 29.273 18c0-3.011-1.172-5.842-3.301-7.97z"/></g></g></g><g><g><g><path fill="#f83e46" d="M20.7 16.243l-2.228 2.229a.667.667 0 0 1-.944 0l-3.879-3.88a.667.667 0 1 1 .944-.943L18 17.057l1.757-1.757a.667.667 0 1 1 .943.943zm4.182 2.301a.667.667 0 1 1 0-1.334h.804a7.74 7.74 0 0 0-7.111-6.915v.7a.667.667 0 0 1-1.334 0v-.684a7.739 7.739 0 0 0-6.935 6.991h.72a.667.667 0 1 1 0 1.334H10.3a7.738 7.738 0 0 0 7.033 7.06v-.845a.667.667 0 1 1 1.334 0v.846a7.738 7.738 0 0 0 7.04-7.153z"/></g></g></g></g></g></g></svg>