<svg xmlns="http://www.w3.org/2000/svg" width="36" height="36" viewBox="0 0 36 36"><g><g><g><path fill="#f83e46" d="M23.743 23.7a.378.378 0 0 1-.142.294 3.506 3.506 0 0 1-.92.5c-.463.18-.932.27-1.407.27-.604 0-1.13-.127-1.579-.38a2.415 2.415 0 0 1-1.012-1.087 3.51 3.51 0 0 1-.338-1.538c0-.6.126-1.135.378-1.602.252-.467.62-.825 1.106-1.075.37-.191.83-.287 1.382-.287.717 0 1.276.15 1.68.45.174.13.321.283.442.456a.595.595 0 0 1-.378.924h-.002a.576.576 0 0 1-.593-.26 1.189 1.189 0 0 0-.308-.328c-.225-.164-.505-.246-.84-.246-.51 0-.915.161-1.215.484-.301.323-.451.802-.451 1.437 0 .685.152 1.2.456 1.542.305.342.704.513 1.197.513.244 0 .49-.047.735-.143.245-.096.456-.212.631-.349v-.732h-.848a.486.486 0 1 1 0-.972h1.649c.208 0 .377.168.377.377zm-5.741.768a.377.377 0 0 1-.332.197h-.597a.377.377 0 0 1-.325-.186l-1.478-2.523-.944.965v1.162a.583.583 0 0 1-1.166 0v-4.607a.583.583 0 0 1 1.166 0v1.98l2.242-2.44a.377.377 0 0 1 .278-.123h.512a.377.377 0 0 1 .271.64l-1.555 1.608 1.912 2.942a.377.377 0 0 1 .016.385zm.33-17.054c1.11 0 2.014.903 2.014 2.013 0 1.11-.903 2.014-2.014 2.014a2.016 2.016 0 0 1-2.013-2.014c0-1.11.903-2.013 2.013-2.013zm11.585 21.275L27.23 13.706a1.266 1.266 0 0 0-1.245-1.042h-4.467a4.53 4.53 0 0 0 1.358-3.237 4.55 4.55 0 0 0-4.545-4.544 4.55 4.55 0 0 0-4.544 4.544 4.53 4.53 0 0 0 1.357 3.237H10.68c-.613 0-1.137.439-1.246 1.042L6.748 28.689a1.265 1.265 0 0 0 1.246 1.489H28.67a1.266 1.266 0 0 0 1.246-1.49z"/></g><g/></g></g></svg>